<?xml version="1.0" encoding="UTF-8"?>
<svg id="Layer_1" data-name="Layer 1" xmlns="http://www.w3.org/2000/svg" viewBox="0 0 1467.44 1426.94">
  <defs>
    <style>
      .cls-1, .cls-2, .cls-3 {
        stroke: #000;
        stroke-miterlimit: 10;
      }

      .cls-1, .cls-2, .cls-3, .cls-4 {
        fill: none;
      }

      .cls-1, .cls-3 {
        stroke-width: 16px;
      }

      .cls-2 {
        stroke-width: 20px;
      }

      .cls-2, .cls-3 {
        stroke-linecap: round;
      }
    </style>
  </defs>
  <rect class="cls-1" x="-36.38" y="678.6" width="439.7" height="174.9" transform="translate(-587.7 605.46) rotate(-64.77)"/>
  <rect class="cls-1" x="1064.12" y="682.79" width="439.7" height="174.9" transform="translate(1134.56 2260.05) rotate(-115.23)"/>
  <path class="cls-3" d="m1103.82,670.25c-78.96,37.94-144.15,2.58-206.24-49.26-9.3-7.76-20.99-12.07-33.1-12.07h-159.64c-12.23,0-24.05,4.39-33.31,12.37l-182.61,157.3c-22.87,19.7-17.89,56.54,9.49,69.26,42.45,19.73,105.13,5.64,187.48-41.32l508.79,295.28c56.78,40.89-23.63,127.49-97.67,88.58-2.95,74.86-49.24,96.96-131.74,74.96,13.55,75.7-20.33,100.37-111.3,63.6,16.85,100.06-61.84,107.79-129.47,65.87"/>
  <path class="cls-3" d="m1213.39,1065.48c2.49-46.38,20.48-66.07,53.97-59.08"/>
  <path class="cls-3" d="m626.83,608.93h-45.43c-66.02,71.79-135.81,98.14-211.24,56.78"/>
  <polygon points="974.35 1115.45 1101.18 1183.58 1092.84 1197.23 974.35 1115.45"/>
  <polygon points="876.19 1202.93 969.86 1258.81 960.67 1271.91 876.19 1202.93"/>
  <polygon points="785.83 1288.07 858.08 1322.1 849.85 1335.82 785.83 1288.07"/>
  <path class="cls-1" d="m372.49,1289.57h0c-26.55-17.05-34.33-52.72-17.28-79.27l98.03-152.7c17.05-26.55,52.72-34.33,79.27-17.28h0c26.55,17.05,34.33,52.72,17.28,79.27l-98.03,152.7c-17.05,26.55-52.72,34.33-79.27,17.28Z"/>
  <rect class="cls-1" x="273.03" y="1003.34" width="128.14" height="231.95" rx="54.89" ry="54.89" transform="translate(658.11 -4.72) rotate(32.7)"/>
  <rect class="cls-1" x="486.72" y="1114.03" width="128.1" height="252.96" rx="57.41" ry="57.41" transform="translate(757.45 -100.94) rotate(32.7)"/>
  <path class="cls-1" d="m606.9,1410.53l-17.95-11.53c-24.71-15.86-31.94-49.05-16.08-73.76l59.32-92.4c15.86-24.71,49.05-31.94,73.76-16.08l17.95,11.53c24.71,15.86,31.94,49.05,16.08,73.76l-59.32,92.4c-15.86,24.71-49.05,31.94-73.76,16.08Z"/>
  <path class="cls-3" d="m258.65,1065.48c-5.66-35.7-27.36-59.37-54.87-78.7"/>
  <path d="m1230.47,359.42c-27.38,52.03-54.83,104.02-82.07,156.12-4.84,9.26-10.89,15.17-21.79,10.23-9.12-4.12-10.98-13.22-4.47-25.35,21.99-41.01,43.94-82.04,66.76-122.59,12.58-22.35,13.37-44.51,2.24-72.47-29.89,54.64-58.11,106.22-87.17,159.35-22.86-12.34-44.52-24.02-67.24-36.28,17.55-32.32,34.71-63.92,51.88-95.51,20.96-38.58,41.8-77.22,62.94-115.7,9.35-17.02,9.85-16.97,30.54-13.67,4.91-8.69,9.82-17.87,15.2-26.76,4.93-8.14,11.78-12.93,21.25-7.32,8.89,5.26,9.95,12.96,5.05,21.88-4.71,8.59-9.12,17.35-13.37,25.47,5.08,7.39,12.47,13.68,13.45,20.84.92,6.68-3.99,14.92-8.08,21.36-6.01,9.48-5.61,17.22-.18,27.14,6.46,11.81,10.17,25.12,15.07,37.78v35.47Z"/>
  <path d="m890.74,762.95c6.2-64.19,25.64-119.07,56.28-170.64,23.41-39.4,44.12-80.41,66.11-120.66,2.76-5.04,5.97-9.84,9.54-15.68,22.34,12.07,43.5,23.52,66.44,35.92-14.8,27.57-29.17,54.48-43.7,81.31-14.04,25.93-29.14,51.33-42.21,77.74-25.23,51-64.33,90.14-110.36,120.69"/>
  <path d="m342.52,517.2c-.68-10.4-1.24-20.8-1.82-31.2l-.86-15.6-.74-15.6c-.97-20.8-2.05-41.6-2.79-62.4l-2.42-62.4-1.92-62.4-.96-31.2-.79-31.2-.76-31.2-.63-31.2-.63-31.2-.5-31.2c-.33-20.8-.68-41.6-.88-62.4l-.16-16.5,16.85-.19,32.52-.37c10.84-.13,21.68-.25,32.52-.3l65.03-.44c43.36-.09,86.71-.28,130.07-.09,21.68.05,43.36.07,65.04.26l65.04.48,65.04.73,65.04,1.02,7.08.11,4.31,4.91,42.25,48.18,42.04,48.37,41.73,48.66,20.86,24.33c6.96,8.11,13.8,16.32,20.7,24.48l2.4,2.83-.19,3.06-2.43,39.36c-.77,13.12-1.73,26.24-2.64,39.36-.94,13.12-1.78,26.24-2.82,39.35-1.04,13.11-1.99,26.23-3.15,39.34l-2-.05,3.16-157.59.37.99L862.54,19.13l1.27.56-260.14.24-260.14-.16,1.8-1.8-.23,249.61-.22,124.81-.34,124.81h-2Z"/>
  <polyline points="1036.72 208.81 853.97 208.81 853.97 9.3"/>
  <line class="cls-2" x1="455.53" y1="209.69" x2="758.16" y2="210.1"/>
  <line class="cls-4" x1="458.94" y1="541.47" x2="761.57" y2="541.88"/>
  <line class="cls-2" x1="455.53" y1="292.85" x2="924.02" y2="292.32"/>
  <line class="cls-2" x1="455.53" y1="374.67" x2="924.02" y2="374.14"/>
  <line class="cls-2" x1="455.53" y1="458.51" x2="924.02" y2="457.98"/>
  <circle cx="117.02" cy="907.06" r="34.32"/>
  <circle cx="1348.44" cy="907.06" r="34.32"/>
</svg>