<?xml version="1.0" encoding="utf-8"?>
<!-- Generator: Adobe Illustrator 26.3.1, SVG Export Plug-In . SVG Version: 6.00 Build 0)  -->
<svg version="1.1" id="Layer_1" xmlns="http://www.w3.org/2000/svg" xmlns:xlink="http://www.w3.org/1999/xlink" x="0px" y="0px"
	 viewBox="0 0 357 303" style="enable-background:new 0 0 357 303;" xml:space="preserve">
<style type="text/css">
	.st0{display:none;}
	.st1{display:inline;}
	.st2{fill:#4398D1;}
	.st3{fill:#B2B2B2;}
	.st4{fill:#D1D1D1;}
	.st5{display:inline;fill:#FDB62F;}
	.st6{fill:none;stroke:#000000;stroke-width:8.5672;stroke-linecap:round;stroke-linejoin:round;stroke-miterlimit:10;}
	.st7{fill:none;stroke:#000000;stroke-width:7;stroke-linecap:round;stroke-linejoin:round;stroke-miterlimit:10;}
	.st8{display:inline;fill:none;stroke:#000000;stroke-width:7;stroke-linecap:round;stroke-linejoin:round;stroke-miterlimit:10;}
	.st9{fill:none;stroke:#000000;stroke-width:6;stroke-linecap:round;stroke-linejoin:round;stroke-miterlimit:10;}
	.st10{fill:none;stroke:#000000;stroke-width:4;stroke-linecap:round;stroke-linejoin:round;stroke-miterlimit:10;}
	.st11{fill:none;stroke:#585453;stroke-width:4;stroke-linecap:round;stroke-linejoin:round;stroke-miterlimit:10;}
	.st12{display:inline;fill-rule:evenodd;clip-rule:evenodd;fill:none;stroke:#000000;stroke-width:3;stroke-miterlimit:2.6131;}
	.st13{fill-rule:evenodd;clip-rule:evenodd;fill:none;stroke:#000000;stroke-width:3;stroke-miterlimit:2.6131;}
</style>
<g class="st0">
	<g class="st1">
		<polygon class="st2" points="365.42,210.78 -37.09,210.78 26.51,51.06 301.82,51.06 		"/>
		<rect x="132.09" y="245.33" class="st3" width="64.15" height="34.55"/>
		<path class="st4" d="M228.04,314.42H100.3v-20.54c0-7.74,6.27-14.01,14.01-14.01h99.72c7.74,0,14.01,6.27,14.01,14.01V314.42z"/>
		<rect x="-37.09" y="210.78" class="st4" width="402.5" height="34.55"/>
	</g>
	<polygon class="st5" points="379.06,164.04 379.06,143.8 342.93,143.8 342.93,164.04 319.89,164.04 319.89,314.17 402.1,314.17 
		402.1,164.04 	"/>
	<path class="st1" d="M319.89,215.04H-37.09c-1.66,0-3.2-0.82-4.13-2.19s-1.12-3.11-0.51-4.65L22.31,47.38
		c0.75-1.9,2.6-3.14,4.64-3.14h277.24c2.04,0,3.88,1.25,4.64,3.14l38.74,97.29c1.02,2.56-0.23,5.46-2.79,6.48
		c-2.56,1.02-5.47-0.23-6.48-2.79L300.8,54.22H30.33l-60.06,150.84H319.9c2.76,0,4.99,2.23,4.99,4.99S322.65,215.04,319.89,215.04z"
		/>
	<path class="st1" d="M165.57,215.04c-2.75,0-4.99-2.23-4.99-4.99V49.23c0-2.75,2.24-4.99,4.99-4.99s4.99,2.24,4.99,4.99v160.83
		C170.56,212.81,168.33,215.04,165.57,215.04z"/>
	<path class="st1" d="M63.12,215.04c-0.32,0-0.65-0.03-0.98-0.1c-2.7-0.53-4.46-3.16-3.92-5.87L90.24,48.25
		c0.54-2.7,3.15-4.44,5.87-3.92c2.7,0.54,4.46,3.17,3.92,5.87L68.01,211.02C67.53,213.4,65.45,215.04,63.12,215.04z"/>
	<path class="st1" d="M268.02,215.04c-2.34,0-4.42-1.64-4.89-4.02L231.12,50.2c-0.54-2.7,1.21-5.33,3.92-5.87
		c2.72-0.53,5.33,1.22,5.87,3.92l32.02,160.83c0.54,2.7-1.21,5.33-3.92,5.87C268.67,215.01,268.34,215.04,268.02,215.04z"/>
	<path class="st1" d="M336.21,134.63H-5.06c-2.75,0-4.99-2.24-4.99-4.99c0-2.75,2.24-4.99,4.99-4.99h341.27
		c2.76,0,4.99,2.24,4.99,4.99C341.2,132.4,338.97,134.63,336.21,134.63z"/>
	<path class="st1" d="M319.89,249.83H-37.09c-2.75,0-4.99-2.23-4.99-4.99v-34.79c0-2.76,2.24-4.99,4.99-4.99h356.98
		c2.76,0,4.99,2.23,4.99,4.99s-2.23,4.99-4.99,4.99H-32.09v24.81h351.98c2.76,0,4.99,2.23,4.99,4.99S322.65,249.83,319.89,249.83z"
		/>
	<path class="st1" d="M197.87,284.63h-64.59c-2.75,0-4.99-2.23-4.99-4.99v-34.8c0-2.76,2.24-4.99,4.99-4.99h64.59
		c2.76,0,4.99,2.23,4.99,4.99v34.8C202.86,282.39,200.63,284.63,197.87,284.63z M138.26,274.65h54.61v-24.81h-54.61V274.65z"/>
	<path class="st1" d="M229.88,319.41H101.26c-2.75,0-4.99-2.23-4.99-4.99v-20.69c0-10.53,8.57-19.09,19.1-19.09h100.42
		c10.53,0,19.09,8.57,19.09,19.09v20.69C234.87,317.18,232.64,319.41,229.88,319.41z M106.25,309.43h118.64v-15.7
		c0-5.03-4.09-9.11-9.11-9.11H115.36c-5.03,0-9.12,4.09-9.12,9.11L106.25,309.43L106.25,309.43z"/>
	<path class="st1" d="M402.1,319.16h-82.21c-2.76,0-4.99-2.23-4.99-4.99V164.04c0-2.75,2.23-4.99,4.99-4.99h18.05V143.8
		c0-2.75,2.23-4.99,4.99-4.99h36.13c2.76,0,4.99,2.24,4.99,4.99v15.25h18.05c2.76,0,4.99,2.24,4.99,4.99v150.14
		C407.09,316.93,404.86,319.16,402.1,319.16z M324.88,309.18h72.23V169.03h-18.05c-2.76,0-4.99-2.24-4.99-4.99v-15.25h-26.15v15.25
		c0,2.75-2.23,4.99-4.99,4.99h-18.05L324.88,309.18L324.88,309.18z"/>
	<path class="st1" d="M351.93,268.77c-0.77,0-1.56-0.18-2.3-0.56c-2.45-1.27-3.39-4.28-2.12-6.73l14.31-27.5h-9.89
		c-1.75,0-3.36-0.91-4.26-2.4c-0.91-1.49-0.97-3.35-0.16-4.89l18.12-34.79c1.27-2.44,4.28-3.41,6.73-2.12
		c2.45,1.27,3.39,4.28,2.12,6.73L360.17,224h9.89c1.75,0,3.36,0.91,4.26,2.4c0.91,1.49,0.97,3.34,0.16,4.89l-18.12,34.8
		C355.47,267.79,353.74,268.77,351.93,268.77z"/>
	<path class="st1" d="M248.73,319.41h-18.84c-2.76,0-4.99-2.23-4.99-4.99s2.23-4.99,4.99-4.99h18.84c7.89,0,14.3-6.42,14.3-14.31
		c0-13.4,10.9-24.29,24.29-24.29h32.56c2.76,0,4.99,2.23,4.99,4.99c0,2.76-2.23,4.99-4.99,4.99h-32.56
		c-7.89,0-14.31,6.42-14.31,14.31C273.02,308.52,262.12,319.41,248.73,319.41z"/>
</g>
<g class="st0">
	<g class="st1">
		<path class="st6" d="M7.62,248.73l-12.63,7.17c-2.54,1.44-3.79,4.46-2.95,7.26c1.52,5.11,3.43,10.05,5.7,14.8
			c1.26,2.64,4.2,4.03,7.06,3.4l14.17-3.16c6.18-1.37,12.62,0.59,16.98,5.17l1.83,1.92c4.36,4.58,6,11.12,4.32,17.22l-3.86,14
			c-0.78,2.82,0.47,5.83,3.04,7.22c4.62,2.5,9.47,4.66,14.49,6.43c2.76,0.97,5.83-0.12,7.4-2.59l7.79-12.25
			c3.4-5.34,9.34-8.51,15.67-8.35l2.66,0.07c6.33,0.16,12.11,3.62,15.23,9.12l7.17,12.63c1.45,2.54,4.46,3.79,7.26,2.95
			c5.11-1.52,10.05-3.43,14.8-5.7c2.64-1.26,4.03-4.2,3.4-7.06L134,304.81c-1.38-6.18,0.59-12.62,5.17-16.98l1.92-1.83
			c4.58-4.36,11.12-6,17.22-4.32l14,3.86c2.82,0.78,5.83-0.47,7.22-3.04c2.5-4.62,4.66-9.47,6.43-14.49
			c0.97-2.76-0.12-5.83-2.59-7.4l-12.25-7.79c-5.34-3.4-8.51-9.34-8.35-15.67l0.07-2.66c0.16-6.33,3.62-12.11,9.12-15.23l12.63-7.17
			c2.54-1.45,3.79-4.46,2.95-7.26c-1.52-5.11-3.43-10.05-5.7-14.8c-1.26-2.64-4.2-4.03-7.06-3.4l-14.17,3.16
			c-6.18,1.38-12.62-0.59-16.98-5.17l-1.83-1.92c-4.36-4.59-6-11.12-4.32-17.22l3.86-14c0.78-2.82-0.47-5.83-3.04-7.22
			c-4.62-2.5-9.47-4.66-14.49-6.43c-2.76-0.97-5.83,0.12-7.4,2.59l-7.79,12.25c-3.4,5.34-9.34,8.51-15.67,8.35l-2.66-0.07
			c-6.33-0.16-12.11-3.62-15.23-9.12l-7.17-12.63c-1.44-2.54-4.46-3.79-7.26-2.95c-5.11,1.52-10.05,3.43-14.8,5.7
			c-2.64,1.26-4.03,4.2-3.4,7.06l0,0l3.16,14.17c1.38,6.18-0.59,12.62-5.17,16.98l-1.92,1.83c-4.58,4.36-11.12,6-17.22,4.32
			l-14-3.86c-2.82-0.78-5.83,0.47-7.22,3.04c-2.5,4.62-4.66,9.47-6.43,14.49c-0.97,2.76,0.12,5.83,2.59,7.4l12.25,7.79
			c5.34,3.4,8.51,9.34,8.35,15.67l-0.07,2.66C16.58,239.82,13.12,245.6,7.62,248.73z"/>
		
			<ellipse transform="matrix(0.709 -0.7052 0.7052 0.709 -138.8856 131.4188)" class="st6" cx="89.79" cy="233.99" rx="41.81" ry="41.71"/>
		<path class="st6" d="M297.94,79.36c-0.01-0.05-0.02-0.1-0.03-0.15c-1.94-8.31-0.35-17.04,4.68-23.93l3.72-5.09
			c1.86-2.54,1.65-6.04-0.5-8.33l-11.44-12.27c-2.14-2.3-5.62-2.75-8.28-1.08l-5.34,3.36c-7.23,4.55-16.07,5.52-24.23,3
			c-0.11-0.03-0.22-0.07-0.32-0.1c-8.15-2.46-14.89-8.22-18.33-16L235.32,13c-1.27-2.88-4.4-4.44-7.47-3.74l-16.35,3.78
			c-3.06,0.71-5.19,3.49-5.07,6.63l0.24,6.3c0.33,8.51-3.21,16.64-9.46,22.43c-0.07,0.07-0.14,0.13-0.22,0.2
			c-6.24,5.84-14.6,8.85-23.1,7.93l-6.27-0.68c-3.12-0.34-6.05,1.59-6.97,4.6l-4.91,16.04c-0.92,3.01,0.43,6.24,3.21,7.71l5.58,2.94
			c7.54,3.98,12.8,11.13,14.69,19.45c0.01,0.06,0.03,0.13,0.04,0.19c0.01,0.04,0.02,0.08,0.03,0.13c1.94,8.31,0.35,17.05-4.69,23.94
			l-3.72,5.09c-1.86,2.54-1.65,6.03,0.5,8.33l11.44,12.27c2.14,2.3,5.62,2.75,8.28,1.08l5.34-3.36c7.23-4.55,16.07-5.51,24.23-2.99
			c0.11,0.03,0.22,0.07,0.32,0.1c8.15,2.46,14.89,8.22,18.33,16.01l2.55,5.77c1.27,2.88,4.4,4.44,7.47,3.74l16.35-3.77
			c3.06-0.71,5.19-3.49,5.07-6.63l-0.24-6.3c-0.32-8.51,3.21-16.63,9.46-22.42c0.08-0.08,0.17-0.15,0.25-0.23
			c6.23-5.84,14.6-8.85,23.09-7.93l6.27,0.68c3.13,0.34,6.05-1.59,6.97-4.6l4.9-16.04c0.92-3.01-0.43-6.24-3.21-7.71l-5.58-2.94
			c-7.54-3.98-12.8-11.13-14.7-19.45C297.97,79.47,297.96,79.42,297.94,79.36z"/>
		
			<ellipse transform="matrix(0.1044 -0.9945 0.9945 0.1044 121.146 320.6689)" class="st6" cx="238.62" cy="93.07" rx="30.15" ry="30.15"/>
	</g>
</g>
<g class="st0">
	<g class="st1">
		<path class="st7" d="M214.74,122.09c1.84-4.35,2.86-9.13,2.86-14.14s-1.02-9.8-2.86-14.14c-1.84-4.35-4.5-8.26-7.79-11.55
			s-7.2-5.95-11.55-7.79c-4.35-1.84-9.13-2.86-14.14-2.86c-5.02,0-9.8,1.02-14.14,2.86c-4.35,1.84-8.26,4.5-11.55,7.79
			s-5.95,7.2-7.79,11.55c-1.84,4.35-2.86,9.13-2.86,14.14s1.02,9.8,2.86,14.14"/>
		<line class="st7" x1="81.99" y1="109.74" x2="119.31" y2="109.74"/>
		<line class="st7" x1="110.05" y1="39.14" x2="136.37" y2="65.53"/>
		<line class="st7" x1="179.76" y1="9" x2="179.76" y2="46.39"/>
		<line class="st7" x1="250.56" y1="37.06" x2="223.77" y2="63.45"/>
		<line class="st7" x1="280.69" y1="106.8" x2="242.9" y2="106.8"/>
	</g>
	<line class="st8" x1="226.02" y1="157.39" x2="171.04" y2="157.39"/>
	<g class="st1">
		<path class="st7" d="M233.43,246.14l25.7,24.95c6.42,6.22,16.83,6.22,23.26,0l0,0c6.41-6.23,6.41-16.34,0-22.57l-54.33-52.72
			l-49.36,2.9c0,47.93-34.84,37.57-34.84,37.57v-51.75l27.12-27.13h76.63"/>
		<path class="st7" d="M220.44,278.78l23.93,23.17c6.42,6.23,16.83,6.23,23.26,0l0,0c6.42-6.23,6.42-16.34,0-22.56l-6.05-6.05"/>
		<path class="st7" d="M200.69,300.13l24.68,23.98c5.77,5.6,15.12,5.6,20.88,0l0,0c5.78-5.59,5.78-14.67,0-20.27l-5.44-5.44"/>
		<path class="st7" d="M184.12,325.32l14.16,13.49c5.78,5.59,15.13,5.59,20.9,0l0,0c5.76-5.6,5.76-14.68,0-20.27l-5.44-5.44"/>
		<path class="st7" d="M96.98,278.78c-5.38,5.38-14.08,5.38-19.45,0l0,0c-5.37-5.37-5.37-14.07,0-19.45l14.66-14.65
			c5.37-5.38,14.08-5.38,19.44,0l0,0c5.38,5.36,5.38,14.07,0,19.44L96.98,278.78z"/>
		<path class="st7" d="M113.14,304.95c-5.74,5.74-15.1,5.7-20.9-0.1l0,0c-5.79-5.79-5.84-15.16-0.1-20.9l19.62-19.61
			c5.75-5.75,15.1-5.71,20.9,0.1l0,0c5.8,5.8,5.84,15.15,0.1,20.9L113.14,304.95z"/>
		<path class="st7" d="M134.47,326.83c-5.91,5.92-15.57,5.87-21.54-0.11l0,0c-5.99-5.98-6.03-15.62-0.11-21.53l20.21-20.23
			c5.93-5.92,15.58-5.88,21.54,0.1l0,0c5.97,5.98,6.02,15.63,0.1,21.54L134.47,326.83z"/>
		<path class="st7" d="M167.36,337.18c-5.91,5.92-15.57,5.87-21.54-0.1l0,0c-5.99-5.98-6.03-15.62-0.1-21.54l10.55-10.57
			c5.93-5.92,15.58-5.87,21.55,0.1l0,0c5.98,5.97,6.03,15.62,0.1,21.55L167.36,337.18z"/>
		<line class="st7" x1="76.33" y1="255.2" x2="61.91" y2="243.48"/>
		<polygon class="st7" points="50.82,257.4 21.2,239.15 84.02,137.13 113.64,155.37 		"/>
		<polygon class="st7" points="311.86,257.4 341.49,239.15 278.66,137.13 249.05,155.37 		"/>
		<line class="st7" x1="289.51" y1="249.79" x2="298.07" y2="243.93"/>
	</g>
</g>
<g class="st0">
	<g class="st1">
		<g>
			<g>
				<polyline class="st9" points="307.26,261.95 307.26,234 78.24,234 78.24,330 307.26,330 307.26,302.05 				"/>
				<polyline class="st9" points="307.26,302.05 334,302.05 334,261.95 307.26,261.95 				"/>
			</g>
		</g>
		<rect x="104.19" y="248" class="st9" width="26.32" height="68"/>
		<rect x="152.06" y="248" class="st9" width="26.32" height="68"/>
		<rect x="199.93" y="248" class="st9" width="26.32" height="68"/>
	</g>
	<g class="st1">
		<g>
			<polyline class="st10" points="3.74,274.54 16.55,274.54 16.55,296.43 			"/>
			<polyline class="st10" points="39.44,274.54 26.63,274.54 26.63,285.48 39.44,285.48 39.44,296.43 26.63,296.43 			"/>
			<line class="st10" x1="66.81" y1="273.94" x2="51.25" y2="296.43"/>
		</g>
		<circle class="st10" cx="66.81" cy="296.43" r="0.43"/>
		<circle class="st10" cx="51.25" cy="273.94" r="0.43"/>
	</g>
	<g class="st1">
		<path class="st9" d="M105.24,152.31c-11.58-6.4-18.38-19.65-15.95-33.41c3.06-17.31,19.58-28.85,36.88-25.79
			c14.79,2.62,25.38,15.07,26.23,29.43"/>
		<line class="st9" x1="206.43" y1="66.32" x2="174.48" y2="88.66"/>
		<line class="st9" x1="140.2" y1="22.67" x2="133.4" y2="61.07"/>
		<line class="st9" x1="62.5" y1="38.65" x2="84.85" y2="70.6"/>
		<line class="st9" x1="18.85" y1="104.88" x2="57.25" y2="111.67"/>
		<line class="st9" x1="34.83" y1="182.58" x2="66.78" y2="160.23"/>
	</g>
	<g class="st1">
		<line class="st9" x1="161.96" y1="124.45" x2="120.94" y2="205.54"/>
		<line class="st9" x1="203.3" y1="124.45" x2="162.27" y2="205.54"/>
		<line class="st9" x1="244.64" y1="124.45" x2="203.61" y2="205.54"/>
		<polygon class="st9" points="244.94,205.54 285.97,124.45 120.63,124.45 79.6,205.54 		"/>
		<line class="st9" x1="327" y1="205.54" x2="285.97" y2="124.45"/>
		<line class="st9" x1="100.11" y1="165" x2="265.46" y2="165"/>
	</g>
</g>
<g class="st0">
	<g class="st1">
		<g>
			<polyline class="st11" points="169.87,134.75 161.95,145.79 172.62,145.82 164.96,156.83 			"/>
		</g>
	</g>
	<g class="st1">
		<circle class="st11" cx="123.19" cy="113.41" r="9"/>
		<line class="st11" x1="123.4" y1="85.51" x2="123.33" y2="93.35"/>
		<line class="st11" x1="143.07" y1="93.83" x2="137.48" y2="99.33"/>
		<line class="st11" x1="151.09" y1="113.62" x2="143.25" y2="113.55"/>
		<line class="st11" x1="122.98" y1="141.31" x2="123.05" y2="133.47"/>
		<line class="st11" x1="103.31" y1="132.99" x2="108.9" y2="127.49"/>
		<line class="st11" x1="95.29" y1="113.2" x2="103.13" y2="113.27"/>
		<line class="st11" x1="103.61" y1="93.53" x2="109.11" y2="99.13"/>
	</g>
	<g class="st1">
		<g>
			<path class="st11" d="M201.01,170.84c0,3.6-2.92,6.53-6.53,6.53h-54.39c-3.6,0-6.53-2.92-6.53-6.53v-40.25
				c0-3.61,2.92-6.53,6.53-6.53h54.39c3.6,0,6.53,2.92,6.53,6.53V170.84z"/>
			<line class="st11" x1="133.83" y1="167.58" x2="200.73" y2="167.58"/>
			<g>
				<path class="st11" d="M177.53,189.11c-3.88-2.99-5.81-6.92-5.81-10.84"/>
				<path class="st11" d="M157.03,189.11c3.88-2.99,5.81-6.92,5.81-10.84"/>
			</g>
		</g>
		<line class="st11" x1="153.41" y1="189.34" x2="181.15" y2="189.34"/>
	</g>
</g>
<g class="st0">
	<g class="st1">
		
			<ellipse transform="matrix(0.8967 -0.4426 0.4426 0.8967 2.4534 82.5092)" class="st6" cx="178.03" cy="36" rx="24.03" ry="24.03"/>
		
			<ellipse transform="matrix(0.5015 -0.8652 0.8652 0.5015 97.954 284.9452)" class="st6" cx="296.23" cy="57.47" rx="24.47" ry="24.47"/>
		<path class="st6" d="M264.11,192.98l-2.01,21.32l-24.86,2.65c-11.44,1.11-19.25,6.87-22.01,16.76
			c-5.98,21.45-11.93,63.84-17.3,84.36c-2.43,9.29,6.35,9.07,15.96,9.07l0,0c6.62,0,12.41-4.43,14.15-10.81l17.86-67.65h44.63
			c9.72,0,16.83-7.6,18.59-17.16l8.58-113.99c0.71-9.06-6.75-16.65-15.82-16.11l-7.97,0.44c-9,0.5-16.45,7.14-18.01,16.01
			c-0.25,1.41-0.53,2.82-0.82,4.18c-1.58,7.37-5.86,13.89-12,18.26c-0.09,0.06-0.18,0.13-0.27,0.19c-5.8,4.11-12.52,6.73-19.56,7.71
			c-7.78,1.09-18.02,2.52-23.05,3.24c-8.72,1.25-17.3,6.56-17.3,16.3c0,0,0,7.79,6.81,7.79"/>
		<path class="st6" d="M234.52,126.65c-2.32-18.56-3.58-34.49-16.68-39.56c-9.26-3.59-21.87-4.91-38.73-4.85
			c-16.84,0.06-29.4,1.57-38.66,5.12c-14.38,5.52-16.82,20.81-18.68,39.78"/>
		<path class="st6" d="M173.23,166.49"/>
		
			<ellipse transform="matrix(0.0961 -0.9954 0.9954 0.0961 -3.4317 111.1701)" class="st6" cx="59.5" cy="57.47" rx="24.47" ry="24.47"/>
		<path class="st6" d="M90.96,192.98l2.01,21.32l24.86,2.65c11.44,1.11,19.25,6.87,22.01,16.76c5.98,21.45,11.93,63.84,17.3,84.36
			c2.43,9.29-6.35,9.07-15.96,9.07l0,0c-6.62,0-12.41-4.43-14.15-10.81l-18.52-67.65H64.55c-9.72,0-16.83-7.6-18.59-17.16
			l-8.58-113.99c-0.71-9.06,6.75-16.65,15.82-16.11l7.97,0.44c9,0.5,16.45,7.14,18.01,16.01c0.25,1.41,0.53,2.82,0.82,4.18
			c1.58,7.37,5.86,13.89,12,18.26c0.09,0.06,0.18,0.13,0.27,0.19c5.8,4.11,12.52,6.73,19.56,7.71c7.78,1.09,18.02,2.52,23.05,3.24
			c8.72,1.25,17.3,6.56,17.3,16.3c0,0,0,7.79-6.81,7.79"/>
		<polyline class="st6" points="340.32,145.62 330.87,248.57 329.9,327.17 		"/>
		<line class="st6" x1="285.23" y1="248.67" x2="330.87" y2="248.67"/>
		<polyline class="st6" points="15.97,145.62 25.42,248.57 26.4,327.17 		"/>
		<line class="st6" x1="71.06" y1="248.67" x2="25.42" y2="248.67"/>
		<path class="st6" d="M279.9,166.49l-7.17,4.52c-4.69,2.96-10.13,4.53-15.67,4.53H98.01c-5.55,0-10.98-1.57-15.67-4.53l-7.17-4.52"
			/>
		<line class="st6" x1="153.81" y1="131.11" x2="155.55" y2="115.12"/>
		<line class="st6" x1="204.3" y1="131.11" x2="202.56" y2="115.12"/>
	</g>
</g>
<g class="st0">
	<g class="st1">
		<circle class="st10" cx="36.19" cy="59.41" r="9"/>
		<line class="st10" x1="36.4" y1="31.51" x2="36.33" y2="39.35"/>
		<line class="st10" x1="56.07" y1="39.83" x2="50.48" y2="45.33"/>
		<line class="st10" x1="64.09" y1="59.62" x2="56.25" y2="59.55"/>
		<line class="st10" x1="35.98" y1="87.31" x2="36.05" y2="79.47"/>
		<line class="st10" x1="16.31" y1="78.99" x2="21.9" y2="73.49"/>
		<line class="st10" x1="8.29" y1="59.2" x2="16.13" y2="59.27"/>
		<line class="st10" x1="16.61" y1="39.53" x2="22.11" y2="45.13"/>
	</g>
	<path class="st12" d="M135.4,89.61l-5.14,2.69 M148.34,87.82c0.79-0.4-0.86-3.36-1.68-3.31l-1.61,0.12
		c-5.76-7.53-17.56-0.67-14.78,7.68c0.06,0.23-0.43,0.32-0.22,0.7l1.62,2.96c0.09,0.19,0.33,0.26,0.51,0.17
		C137.57,93.37,142.95,90.59,148.34,87.82L148.34,87.82L148.34,87.82z M146.29,90.2c1.44,2.21,1.51,5.15-0.06,7.47
		c-2.09,3.08-7.22,3.24-9.35,1.8c-2.13-1.45-2.03-1.91-2.5-3.14 M170.8,121.83l-11.69-0.53l-4.14-11.34
		c-0.99-2.19-2.53-3.6-4.92-4.08l-19.38-3.34l-5.94-6.7l-2.04-15.76 M154.5,178.12l-0.19-25.22l-3.94-15.83l-0.5-21.17l0.2,0.02
		l3.36,9.65c0.36,0.81,0.98,1.33,1.9,1.5l14.8,0.47 M135.01,178.12l3.14-24.14l0.66-11.88c0.54,0,0.5,0,1.04,0l5.42,11.63
		l2.64,24.39 M117.24,80.12l0.69,17.75c0.18,1.92,0.66,2.69,1.52,3.83l9.37,10.8l0.27,0.67l-0.07,22.64l0.47,18.78l-0.88,23.54
		 M127.28,84.69L111.9,69.31h81.61L256,131.8h-81.61l-5-5.01 M132.3,69.31l8.5,8.5 M152.55,89.55l42.25,42.24 M152.71,69.31
		l62.49,62.49 M173.11,69.31l62.49,62.49 M151.7,84.73h57.24 M153.1,100.16h71.26 M162.74,115.58h77.05 M262.05,87.63l-6.04-0.6
		 M246.46,91.98c-0.49,2.59,0.58,5.34,2.92,6.88c3.11,2.04,7.28,1.18,9.33-1.93c0.78-1.19,1.14-2.54,1.11-3.86 M243.66,90.56
		c-0.89-0.07-0.5-3.44,0.28-3.7l1.53-0.51c2.44-9.16,15.96-7.36,16.6,1.42c0.03,0.23,0.51,0.13,0.47,0.56l-0.36,3.35
		c-0.02,0.21-0.2,0.37-0.41,0.35C255.73,91.56,249.69,91.05,243.66,90.56L243.66,90.56L243.66,90.56z M261.84,113.72l1.11,9.41
		l-0.04,0.06l-10.87,4.63 M266.68,177.98l-2.33-22.37l-1.66-19.56l0.05-6.54 M214.04,89.84l6.92,0.6l10.18,8.5L242,102l19.62,4.2
		c3.93,0.89,5.58,2.01,6.36,5.76l1.12,9.18c0.23,2.31,0.6,6.04-2.2,7.01l-10.14,3.71l-1.11-0.01 M243.29,131.48
		c-0.03,1.75-0.07,3.43-0.12,5.01l-5.63,17.63l1.88,23.92 M230.55,106.35l12.58,4.69l0.37,0.6c-0.02,2.54-0.04,5.32-0.07,8.19
		 M259.84,178.04l-3.63-21.95l-3.56-14.19l-0.45-0.06l-6.78,14.35l0.57,21.84 M124.04,122.02H71.89L8.25,195.18h15.32v84.37
		 M148.03,195.18v84.37 M243.22,268.77h24.09 M239.27,254.02h24.09 M235.31,239.27h24.09 M231.36,224.53h24.09 M227.41,209.78h24.09
		 M223.46,195.03h24.09 M244.9,185.15l25.21,94.09 M240.22,185.15l25.21,94.09 M220.81,185.15l25.21,94.09 M216.13,185.15
		l25.21,94.09 M23.57,195.18l55.98-64.36 M349.03,195.18H137.01l-65.11-73.16 M66.02,279.55v-73.05h39.33v73.05 M273.9,122.02h10.02
		l65.12,73.16 M333.97,195.18v84.37 M271.71,206.49h39.33v39.33h-39.33V206.49L271.71,206.49z M171.74,206.49h39.33v39.33h-39.33
		V206.49L171.74,206.49z M167.61,250.06h48.37 M268.29,250.06h48.37 M78.14,217.03h15.11v19.47H78.14V217.03L78.14,217.03z
		 M66.02,243.02h7.3 M205.96,210.06v30.65h-31.24 M305.92,210.06v30.65h-31.24 M22.39,268.77h43.63 M105.35,268.77h43.63
		 M148.03,268.77h85.96 M270.31,268.77h64.37 M6.28,279.55H351"/>
</g>
<path class="st13" d="M77.55,141.17c-7.85-1.73-14.03-8.37-14.81-16.8c-0.97-10.44,6.72-19.69,17.16-20.66
	c9.32-0.86,17.69,5.17,20.07,13.9c0.13,0.49,0.25,1,0.35,1.51 M78.5,94.17l-1.06-11.41 M93.15,96.4l4.79-10.41 M104.72,105.66
	l9.35-6.62 M70.16,148.84l-4.79,10.41 M58.59,139.57l-9.36,6.62 M53.2,125.77l-11.41,1.06 M55.44,111.12l-10.41-4.79 M64.7,99.55
	l-6.62-9.36 M214.7,232.03l2.41-4.17c1.23-2.13,0.9-4.76-1.81-4.94h-19.97c-1.69,0-3.15-1.86-2.22-3.39l1.59-2.63
	c0.95-1.57,2.24-1.75,3.82-1.75h38.94c1.59,0,2.29-0.18,3.24-1.75l1.81-2.99c1.12-1.86,0.09-4.17-2.43-4.17h-46.7
	c-2.78-0.09-3.22-1.49-1.68-4l2.84-4.91 M207.13,232.03l2.54-4.39c0.97-1.49,1.79-3.57-0.63-4.72 M203.29,238.68l3.03-5.25
	 M210.87,238.68l3.03-5.25 M155.58,107.43l2.21-7.04c2.31-9.79-17.99-17.08-22.02-6.41l-1.61,4.26c-0.12,0.3,0.02,0.65,0.32,0.77
	l30.17,11.95 M154.95,107.23c-0.3,1.08-1.16,3.13-1.74,4.2c-1.58,2.91-4.5,5.03-8.04,5.45c-5.8,0.69-11.07-3.45-11.76-9.25
	c-0.21-1.72,0.01-3.4,0.57-4.92c0.16-0.44,1.18-2.93,1.4-3.35 M103.93,151.04l20.52,19c1.34,1.62,1.6,2.73,1.75,4.91l-1.12,35.31
	 M113.4,209.95l-0.72-32.05l-11.83-6.98 M123.56,137.91l-22.37,15.73c-1.51,1.09-1.55,2.93-1.43,4.82l1.67,16.1
	c0.36,3.55,0.02,3.82-0.76,7.03l-6.24,28.74 M150.65,157.62l-22.61-5.12l-2.23-2.79l-3.73-22.55 M82.22,210.51l4.42-32.35
	c0.19-1.41,0.2-1.81-0.31-3.55l-6.06-18.96c-1.06-3.89-1.11-7.53,0.06-10.69c1.32-3.54,7.62-10.03,10.37-12.5
	c6.12-5.5,16.98-14.12,25.18-18.61c4.43-2.42,11.93-2.45,15.83,1.2c4.26,3.83,3.8,6.28,4.22,11.2l1.3,15.04l0.22,0.74l16.92,8.13
	 M102.31,152.86l-15.01-10.57 M117.38,221.65h41.89v14.5c0,1.2-0.98,2.18-2.18,2.18h-37.53c-1.2,0-2.18-0.98-2.18-2.18V221.65
	L117.38,221.65z M160.79,221.65v-5.7c0-0.62-0.52-1.13-1.13-1.13h-42.66c-0.62,0-1.13,0.52-1.13,1.13v5.7H160.79L160.79,221.65z
	 M144.75,212.03v-2.36c0-0.8-0.66-1.46-1.46-1.46h-9.94c-0.8,0-1.46,0.66-1.46,1.46v2.36 M125.04,221.65v3.5 M151.6,221.65v3.5
	 M333.21,164.9H352 M276.45,164.9h14.86 M124.11,164.9h23.58 M4.88,214.71l64.39-49.81h11.29 M248.26,110.81h-77.2l-34.15,80.16
	l3.2,5.58h118.27l12.39-29.07 M255.01,190.97l3.37,5.58 M136.91,190.97h118.1l23.2-54.45 M277.41,128.8H164.42 M272.66,149.15
	H154.78 M264.17,169.49h-118.1 M255.26,116.89l-31.67,74.32 M229.13,110.81l-34.26,80.4 M200.41,110.81l-34.26,80.4 M316.03,154.16
	l13.25-9.06 M261.07,107.05l-3.01-6.73c-3.43-9.46,15.88-19.06,21.13-8.93l2.09,4.04c0.16,0.29,0.06,0.65-0.23,0.8l-28.58,15.38
	 M261.67,106.78c0.43,1.03,1.52,2.97,2.22,3.97c1.91,2.7,5.05,4.47,8.62,4.48c5.84,0.01,10.59-4.71,10.61-10.55
	c0.01-1.74-0.41-3.37-1.14-4.82c-0.21-0.42-1.52-2.78-1.78-3.16 M295.69,210.51l8.23-33.21l12.41-6.98 M311.05,150.29l-18.9,18.57
	c-1.17,1.51-1.53,2.69-1.75,4.92l-5.81,37.05 M295.06,138.28l20.96,15.3c1.06,0.75,1.45,2.04,1.48,3.43l-1.75,18.12
	c-0.36,3.55-0.02,3.82,0.76,7.03l7.4,28.74 M335.55,209.91l-5.57-31.19c-0.19-1.41-0.2-1.81,0.31-3.55l5.48-19.54
	c2.85-10.45-3.21-16.7-10.43-23.19c-6.12-5.5-15.82-13.54-24.02-18.04c-10.32-5.65-22.9,0.55-20.28,10.15l3.7,20.73l-0.15,0.76
	l-15.31,11.44 M270.15,168.21l23.04-12.67c2.28-1.25,2.82-3.52,2.9-5.99l-1.53-25.38"/>
</svg>
