<?xml version="1.0" encoding="utf-8"?>
<!-- Generator: Adobe Illustrator 26.3.1, SVG Export Plug-In . SVG Version: 6.00 Build 0)  -->
<svg version="1.1" xmlns="http://www.w3.org/2000/svg" xmlns:xlink="http://www.w3.org/1999/xlink" x="0px" y="0px"
	 viewBox="0 0 357 303" style="enable-background:new 0 0 357 303;" xml:space="preserve">
<style type="text/css">
	.st0{display:none;}
	.st1{display:inline;}
	.st2{fill:#4398D1;}
	.st3{fill:#B2B2B2;}
	.st4{fill:#D1D1D1;}
	.st5{display:inline;fill:#FDB62F;}
	.st6{fill:none;stroke:#000000;stroke-width:8.5672;stroke-linecap:round;stroke-linejoin:round;stroke-miterlimit:10;}
	.st7{fill:none;stroke:#000000;stroke-width:7;stroke-linecap:round;stroke-linejoin:round;stroke-miterlimit:10;}
	.st8{display:inline;fill:none;stroke:#000000;stroke-width:7;stroke-linecap:round;stroke-linejoin:round;stroke-miterlimit:10;}
	.st9{fill:none;stroke:#000000;stroke-width:6;stroke-linecap:round;stroke-linejoin:round;stroke-miterlimit:10;}
	.st10{fill:none;stroke:#000000;stroke-width:4;stroke-linecap:round;stroke-linejoin:round;stroke-miterlimit:10;}
	.st11{display:inline;fill:none;stroke:#000000;stroke-width:6;stroke-linecap:round;stroke-linejoin:round;stroke-miterlimit:10;}
	.st12{fill:none;stroke:#585453;stroke-width:4;stroke-linecap:round;stroke-linejoin:round;stroke-miterlimit:10;}
	.st13{fill:none;stroke:#000000;stroke-width:5;stroke-linecap:round;stroke-linejoin:round;stroke-miterlimit:10;}
	.st14{display:inline;fill-rule:evenodd;clip-rule:evenodd;fill:none;stroke:#000000;stroke-width:3;stroke-miterlimit:2.6131;}
	.st15{display:none;fill-rule:evenodd;clip-rule:evenodd;fill:none;stroke:#000000;stroke-width:3;stroke-miterlimit:2.6131;}
	.st16{display:inline;fill-rule:evenodd;clip-rule:evenodd;fill:none;stroke:#000000;stroke-width:3;stroke-miterlimit:22.9256;}
	.st17{display:inline;fill:none;stroke:#000000;stroke-width:4;stroke-linecap:round;stroke-linejoin:round;stroke-miterlimit:10;}
	.st18{fill:#FFFFFF;}
	.st19{stroke:#000000;stroke-width:2;stroke-miterlimit:10;}
	.st20{fill:none;stroke:#000000;stroke-width:3;stroke-miterlimit:10;}
	.st21{display:inline;fill:none;stroke:#000000;stroke-width:3;stroke-miterlimit:10;}
	.st22{fill:none;stroke:#000000;stroke-width:2;stroke-miterlimit:10;}
	.st23{display:inline;fill:none;stroke:#000000;stroke-width:2;stroke-miterlimit:10;}
	.st24{fill:#333333;}
	.st25{fill:none;stroke:#000000;stroke-width:2;stroke-linecap:round;stroke-linejoin:round;stroke-miterlimit:10;}
	
		.st26{fill-rule:evenodd;clip-rule:evenodd;fill:none;stroke:#000000;stroke-width:2;stroke-linecap:round;stroke-linejoin:round;stroke-miterlimit:3;}
	
		.st27{display:inline;fill-rule:evenodd;clip-rule:evenodd;fill:none;stroke:#000000;stroke-width:2;stroke-linecap:round;stroke-linejoin:round;stroke-miterlimit:3;}
	.st28{fill-rule:evenodd;clip-rule:evenodd;fill:#FFFFFF;fill-opacity:0;}
</style>
<g id="Layer_1">
	<g class="st0">
		<g class="st1">
			<polygon class="st2" points="365.42,210.78 -37.09,210.78 26.51,51.06 301.82,51.06 			"/>
			<rect x="132.09" y="245.33" class="st3" width="64.15" height="34.55"/>
			<path class="st4" d="M228.04,314.42H100.3v-20.54c0-7.74,6.27-14.01,14.01-14.01h99.72c7.74,0,14.01,6.27,14.01,14.01V314.42z"/>
			<rect x="-37.09" y="210.78" class="st4" width="402.5" height="34.55"/>
		</g>
		<polygon class="st5" points="379.06,164.04 379.06,143.8 342.93,143.8 342.93,164.04 319.89,164.04 319.89,314.17 402.1,314.17 
			402.1,164.04 		"/>
		<path class="st1" d="M319.89,215.04H-37.09c-1.66,0-3.2-0.82-4.13-2.19s-1.12-3.11-0.51-4.65L22.31,47.38
			c0.75-1.9,2.6-3.14,4.64-3.14h277.24c2.04,0,3.88,1.25,4.64,3.14l38.74,97.29c1.02,2.56-0.23,5.46-2.79,6.48
			c-2.56,1.02-5.47-0.23-6.48-2.79L300.8,54.22H30.33l-60.06,150.84H319.9c2.76,0,4.99,2.23,4.99,4.99S322.65,215.04,319.89,215.04z
			"/>
		<path class="st1" d="M165.57,215.04c-2.75,0-4.99-2.23-4.99-4.99V49.23c0-2.75,2.24-4.99,4.99-4.99s4.99,2.24,4.99,4.99v160.83
			C170.56,212.81,168.33,215.04,165.57,215.04z"/>
		<path class="st1" d="M63.12,215.04c-0.32,0-0.65-0.03-0.98-0.1c-2.7-0.53-4.46-3.16-3.92-5.87L90.24,48.25
			c0.54-2.7,3.15-4.44,5.87-3.92c2.7,0.54,4.46,3.17,3.92,5.87L68.01,211.02C67.53,213.4,65.45,215.04,63.12,215.04z"/>
		<path class="st1" d="M268.02,215.04c-2.34,0-4.42-1.64-4.89-4.02L231.12,50.2c-0.54-2.7,1.21-5.33,3.92-5.87
			c2.72-0.53,5.33,1.22,5.87,3.92l32.02,160.83c0.54,2.7-1.21,5.33-3.92,5.87C268.67,215.01,268.34,215.04,268.02,215.04z"/>
		<path class="st1" d="M336.21,134.63H-5.06c-2.75,0-4.99-2.24-4.99-4.99c0-2.75,2.24-4.99,4.99-4.99h341.27
			c2.76,0,4.99,2.24,4.99,4.99C341.2,132.4,338.97,134.63,336.21,134.63z"/>
		<path class="st1" d="M319.89,249.83H-37.09c-2.75,0-4.99-2.23-4.99-4.99v-34.79c0-2.76,2.24-4.99,4.99-4.99h356.98
			c2.76,0,4.99,2.23,4.99,4.99s-2.23,4.99-4.99,4.99H-32.09v24.81h351.98c2.76,0,4.99,2.23,4.99,4.99S322.65,249.83,319.89,249.83z"
			/>
		<path class="st1" d="M197.87,284.63h-64.59c-2.75,0-4.99-2.23-4.99-4.99v-34.8c0-2.76,2.24-4.99,4.99-4.99h64.59
			c2.76,0,4.99,2.23,4.99,4.99v34.8C202.86,282.39,200.63,284.63,197.87,284.63z M138.26,274.65h54.61v-24.81h-54.61V274.65z"/>
		<path class="st1" d="M229.88,319.41H101.26c-2.75,0-4.99-2.23-4.99-4.99v-20.69c0-10.53,8.57-19.09,19.1-19.09h100.42
			c10.53,0,19.09,8.57,19.09,19.09v20.69C234.87,317.18,232.64,319.41,229.88,319.41z M106.25,309.43h118.64v-15.7
			c0-5.03-4.09-9.11-9.11-9.11H115.36c-5.03,0-9.12,4.09-9.12,9.11L106.25,309.43L106.25,309.43z"/>
		<path class="st1" d="M402.1,319.16h-82.21c-2.76,0-4.99-2.23-4.99-4.99V164.04c0-2.75,2.23-4.99,4.99-4.99h18.05V143.8
			c0-2.75,2.23-4.99,4.99-4.99h36.13c2.76,0,4.99,2.24,4.99,4.99v15.25h18.05c2.76,0,4.99,2.24,4.99,4.99v150.14
			C407.09,316.93,404.86,319.16,402.1,319.16z M324.88,309.18h72.23V169.03h-18.05c-2.76,0-4.99-2.24-4.99-4.99v-15.25h-26.15v15.25
			c0,2.75-2.23,4.99-4.99,4.99h-18.05L324.88,309.18L324.88,309.18z"/>
		<path class="st1" d="M351.93,268.77c-0.77,0-1.56-0.18-2.3-0.56c-2.45-1.27-3.39-4.28-2.12-6.73l14.31-27.5h-9.89
			c-1.75,0-3.36-0.91-4.26-2.4c-0.91-1.49-0.97-3.35-0.16-4.89l18.12-34.79c1.27-2.44,4.28-3.41,6.73-2.12
			c2.45,1.27,3.39,4.28,2.12,6.73L360.17,224h9.89c1.75,0,3.36,0.91,4.26,2.4c0.91,1.49,0.97,3.34,0.16,4.89l-18.12,34.8
			C355.47,267.79,353.74,268.77,351.93,268.77z"/>
		<path class="st1" d="M248.73,319.41h-18.84c-2.76,0-4.99-2.23-4.99-4.99s2.23-4.99,4.99-4.99h18.84c7.89,0,14.3-6.42,14.3-14.31
			c0-13.4,10.9-24.29,24.29-24.29h32.56c2.76,0,4.99,2.23,4.99,4.99c0,2.76-2.23,4.99-4.99,4.99h-32.56
			c-7.89,0-14.31,6.42-14.31,14.31C273.02,308.52,262.12,319.41,248.73,319.41z"/>
	</g>
	<g class="st0">
		<g class="st1">
			<path class="st6" d="M7.62,248.73l-12.63,7.17c-2.54,1.44-3.79,4.46-2.95,7.26c1.52,5.11,3.43,10.05,5.7,14.8
				c1.26,2.64,4.2,4.03,7.06,3.4l14.17-3.16c6.18-1.37,12.62,0.59,16.98,5.17l1.83,1.92c4.36,4.58,6,11.12,4.32,17.22l-3.86,14
				c-0.78,2.82,0.47,5.83,3.04,7.22c4.62,2.5,9.47,4.66,14.49,6.43c2.76,0.97,5.83-0.12,7.4-2.59l7.79-12.25
				c3.4-5.34,9.34-8.51,15.67-8.35l2.66,0.07c6.33,0.16,12.11,3.62,15.23,9.12l7.17,12.63c1.45,2.54,4.46,3.79,7.26,2.95
				c5.11-1.52,10.05-3.43,14.8-5.7c2.64-1.26,4.03-4.2,3.4-7.06L134,304.81c-1.38-6.18,0.59-12.62,5.17-16.98l1.92-1.83
				c4.58-4.36,11.12-6,17.22-4.32l14,3.86c2.82,0.78,5.83-0.47,7.22-3.04c2.5-4.62,4.66-9.47,6.43-14.49
				c0.97-2.76-0.12-5.83-2.59-7.4l-12.25-7.79c-5.34-3.4-8.51-9.34-8.35-15.67l0.07-2.66c0.16-6.33,3.62-12.11,9.12-15.23
				l12.63-7.17c2.54-1.45,3.79-4.46,2.95-7.26c-1.52-5.11-3.43-10.05-5.7-14.8c-1.26-2.64-4.2-4.03-7.06-3.4l-14.17,3.16
				c-6.18,1.38-12.62-0.59-16.98-5.17l-1.83-1.92c-4.36-4.59-6-11.12-4.32-17.22l3.86-14c0.78-2.82-0.47-5.83-3.04-7.22
				c-4.62-2.5-9.47-4.66-14.49-6.43c-2.76-0.97-5.83,0.12-7.4,2.59l-7.79,12.25c-3.4,5.34-9.34,8.51-15.67,8.35l-2.66-0.07
				c-6.33-0.16-12.11-3.62-15.23-9.12l-7.17-12.63c-1.44-2.54-4.46-3.79-7.26-2.95c-5.11,1.52-10.05,3.43-14.8,5.7
				c-2.64,1.26-4.03,4.2-3.4,7.06l0,0l3.16,14.17c1.38,6.18-0.59,12.62-5.17,16.98l-1.92,1.83c-4.58,4.36-11.12,6-17.22,4.32
				l-14-3.86c-2.82-0.78-5.83,0.47-7.22,3.04c-2.5,4.62-4.66,9.47-6.43,14.49c-0.97,2.76,0.12,5.83,2.59,7.4l12.25,7.79
				c5.34,3.4,8.51,9.34,8.35,15.67l-0.07,2.66C16.58,239.82,13.12,245.6,7.62,248.73z"/>
			
				<ellipse transform="matrix(0.709 -0.7052 0.7052 0.709 -138.8856 131.4188)" class="st6" cx="89.79" cy="233.99" rx="41.81" ry="41.71"/>
			<path class="st6" d="M297.94,79.36c-0.01-0.05-0.02-0.1-0.03-0.15c-1.94-8.31-0.35-17.04,4.68-23.93l3.72-5.09
				c1.86-2.54,1.65-6.04-0.5-8.33l-11.44-12.27c-2.14-2.3-5.62-2.75-8.28-1.08l-5.34,3.36c-7.23,4.55-16.07,5.52-24.23,3
				c-0.11-0.03-0.22-0.07-0.32-0.1c-8.15-2.46-14.89-8.22-18.33-16L235.32,13c-1.27-2.88-4.4-4.44-7.47-3.74l-16.35,3.78
				c-3.06,0.71-5.19,3.49-5.07,6.63l0.24,6.3c0.33,8.51-3.21,16.64-9.46,22.43c-0.07,0.07-0.14,0.13-0.22,0.2
				c-6.24,5.84-14.6,8.85-23.1,7.93l-6.27-0.68c-3.12-0.34-6.05,1.59-6.97,4.6l-4.91,16.04c-0.92,3.01,0.43,6.24,3.21,7.71
				l5.58,2.94c7.54,3.98,12.8,11.13,14.69,19.45c0.01,0.06,0.03,0.13,0.04,0.19c0.01,0.04,0.02,0.08,0.03,0.13
				c1.94,8.31,0.35,17.05-4.69,23.94l-3.72,5.09c-1.86,2.54-1.65,6.03,0.5,8.33l11.44,12.27c2.14,2.3,5.62,2.75,8.28,1.08l5.34-3.36
				c7.23-4.55,16.07-5.51,24.23-2.99c0.11,0.03,0.22,0.07,0.32,0.1c8.15,2.46,14.89,8.22,18.33,16.01l2.55,5.77
				c1.27,2.88,4.4,4.44,7.47,3.74l16.35-3.77c3.06-0.71,5.19-3.49,5.07-6.63l-0.24-6.3c-0.32-8.51,3.21-16.63,9.46-22.42
				c0.08-0.08,0.17-0.15,0.25-0.23c6.23-5.84,14.6-8.85,23.09-7.93l6.27,0.68c3.13,0.34,6.05-1.59,6.97-4.6l4.9-16.04
				c0.92-3.01-0.43-6.24-3.21-7.71l-5.58-2.94c-7.54-3.98-12.8-11.13-14.7-19.45C297.97,79.47,297.96,79.42,297.94,79.36z"/>
			
				<ellipse transform="matrix(0.1044 -0.9945 0.9945 0.1044 121.146 320.6689)" class="st6" cx="238.62" cy="93.07" rx="30.15" ry="30.15"/>
		</g>
	</g>
	<g class="st0">
		<g class="st1">
			<path class="st7" d="M214.74,122.09c1.84-4.35,2.86-9.13,2.86-14.14s-1.02-9.8-2.86-14.14c-1.84-4.35-4.5-8.26-7.79-11.55
				s-7.2-5.95-11.55-7.79c-4.35-1.84-9.13-2.86-14.14-2.86c-5.02,0-9.8,1.02-14.14,2.86c-4.35,1.84-8.26,4.5-11.55,7.79
				s-5.95,7.2-7.79,11.55c-1.84,4.35-2.86,9.13-2.86,14.14s1.02,9.8,2.86,14.14"/>
			<line class="st7" x1="81.99" y1="109.74" x2="119.31" y2="109.74"/>
			<line class="st7" x1="110.05" y1="39.14" x2="136.37" y2="65.53"/>
			<line class="st7" x1="179.76" y1="9" x2="179.76" y2="46.39"/>
			<line class="st7" x1="250.56" y1="37.06" x2="223.77" y2="63.45"/>
			<line class="st7" x1="280.69" y1="106.8" x2="242.9" y2="106.8"/>
		</g>
		<line class="st8" x1="226.02" y1="157.39" x2="171.04" y2="157.39"/>
		<g class="st1">
			<path class="st7" d="M233.43,246.14l25.7,24.95c6.42,6.22,16.83,6.22,23.26,0l0,0c6.41-6.23,6.41-16.34,0-22.57l-54.33-52.72
				l-49.36,2.9c0,47.93-34.84,37.57-34.84,37.57v-51.75l27.12-27.13h76.63"/>
			<path class="st7" d="M220.44,278.78l23.93,23.17c6.42,6.23,16.83,6.23,23.26,0l0,0c6.42-6.23,6.42-16.34,0-22.56l-6.05-6.05"/>
			<path class="st7" d="M200.69,300.13l24.68,23.98c5.77,5.6,15.12,5.6,20.88,0l0,0c5.78-5.59,5.78-14.67,0-20.27l-5.44-5.44"/>
			<path class="st7" d="M184.12,325.32l14.16,13.49c5.78,5.59,15.13,5.59,20.9,0l0,0c5.76-5.6,5.76-14.68,0-20.27l-5.44-5.44"/>
			<path class="st7" d="M96.98,278.78c-5.38,5.38-14.08,5.38-19.45,0l0,0c-5.37-5.37-5.37-14.07,0-19.45l14.66-14.65
				c5.37-5.38,14.08-5.38,19.44,0l0,0c5.38,5.36,5.38,14.07,0,19.44L96.98,278.78z"/>
			<path class="st7" d="M113.14,304.95c-5.74,5.74-15.1,5.7-20.9-0.1l0,0c-5.79-5.79-5.84-15.16-0.1-20.9l19.62-19.61
				c5.75-5.75,15.1-5.71,20.9,0.1l0,0c5.8,5.8,5.84,15.15,0.1,20.9L113.14,304.95z"/>
			<path class="st7" d="M134.47,326.83c-5.91,5.92-15.57,5.87-21.54-0.11l0,0c-5.99-5.98-6.03-15.62-0.11-21.53l20.21-20.23
				c5.93-5.92,15.58-5.88,21.54,0.1l0,0c5.97,5.98,6.02,15.63,0.1,21.54L134.47,326.83z"/>
			<path class="st7" d="M167.36,337.18c-5.91,5.92-15.57,5.87-21.54-0.1l0,0c-5.99-5.98-6.03-15.62-0.1-21.54l10.55-10.57
				c5.93-5.92,15.58-5.87,21.55,0.1l0,0c5.98,5.97,6.03,15.62,0.1,21.55L167.36,337.18z"/>
			<line class="st7" x1="76.33" y1="255.2" x2="61.91" y2="243.48"/>
			<polygon class="st7" points="50.82,257.4 21.2,239.15 84.02,137.13 113.64,155.37 			"/>
			<polygon class="st7" points="311.86,257.4 341.49,239.15 278.66,137.13 249.05,155.37 			"/>
			<line class="st7" x1="289.51" y1="249.79" x2="298.07" y2="243.93"/>
		</g>
	</g>
	<g class="st0">
		<g class="st1">
			<g>
				<g>
					<polyline class="st9" points="307.26,261.95 307.26,234 78.24,234 78.24,330 307.26,330 307.26,302.05 					"/>
					<polyline class="st9" points="307.26,302.05 334,302.05 334,261.95 307.26,261.95 					"/>
				</g>
			</g>
			<rect x="104.19" y="248" class="st9" width="26.32" height="68"/>
			<rect x="152.06" y="248" class="st9" width="26.32" height="68"/>
			<rect x="199.93" y="248" class="st9" width="26.32" height="68"/>
		</g>
		<g class="st1">
			<g>
				<polyline class="st10" points="3.74,274.54 16.55,274.54 16.55,296.43 				"/>
				<polyline class="st10" points="39.44,274.54 26.63,274.54 26.63,285.48 39.44,285.48 39.44,296.43 26.63,296.43 				"/>
				<line class="st10" x1="66.81" y1="273.94" x2="51.25" y2="296.43"/>
			</g>
			<circle class="st10" cx="66.81" cy="296.43" r="0.43"/>
			<circle class="st10" cx="51.25" cy="273.94" r="0.43"/>
		</g>
		<g class="st1">
			<path class="st9" d="M105.24,152.31c-11.58-6.4-18.38-19.65-15.95-33.41c3.06-17.31,19.58-28.85,36.88-25.79
				c14.79,2.62,25.38,15.07,26.23,29.43"/>
			<line class="st9" x1="206.43" y1="66.32" x2="174.48" y2="88.66"/>
			<line class="st9" x1="140.2" y1="22.67" x2="133.4" y2="61.07"/>
			<line class="st9" x1="62.5" y1="38.65" x2="84.85" y2="70.6"/>
			<line class="st9" x1="18.85" y1="104.88" x2="57.25" y2="111.67"/>
			<line class="st9" x1="34.83" y1="182.58" x2="66.78" y2="160.23"/>
		</g>
		<g class="st1">
			<line class="st9" x1="161.96" y1="124.45" x2="120.94" y2="205.54"/>
			<line class="st9" x1="203.3" y1="124.45" x2="162.27" y2="205.54"/>
			<line class="st9" x1="244.64" y1="124.45" x2="203.61" y2="205.54"/>
			<polygon class="st9" points="244.94,205.54 285.97,124.45 120.63,124.45 79.6,205.54 			"/>
			<line class="st9" x1="327" y1="205.54" x2="285.97" y2="124.45"/>
			<line class="st9" x1="100.11" y1="165" x2="265.46" y2="165"/>
		</g>
	</g>
	<g class="st0">
		<path class="st11" d="M97.24,136.31c-11.58-6.4-18.38-19.65-15.95-33.41c3.06-17.31,19.58-28.85,36.88-25.79
			c14.79,2.62,25.38,15.07,26.23,29.43"/>
		<line class="st11" x1="198.43" y1="50.32" x2="166.48" y2="72.66"/>
		<line class="st11" x1="132.2" y1="6.67" x2="125.4" y2="45.07"/>
		<line class="st11" x1="54.5" y1="22.65" x2="76.85" y2="54.6"/>
		<line class="st11" x1="10.85" y1="88.88" x2="49.25" y2="95.67"/>
		<line class="st11" x1="26.83" y1="166.58" x2="58.78" y2="144.23"/>
	</g>
	<g class="st0">
		<line class="st11" x1="153.96" y1="108.45" x2="112.94" y2="189.54"/>
		<line class="st11" x1="195.3" y1="108.45" x2="154.27" y2="189.54"/>
		<line class="st11" x1="236.64" y1="108.45" x2="195.61" y2="189.54"/>
		<polygon class="st11" points="236.94,189.54 277.97,108.45 112.63,108.45 71.6,189.54 		"/>
		<line class="st11" x1="319" y1="189.54" x2="277.97" y2="108.45"/>
		<line class="st11" x1="92.11" y1="149" x2="257.46" y2="149"/>
	</g>
	<g class="st0">
		<g class="st1">
			<g>
				<polyline class="st12" points="169.87,134.75 161.95,145.79 172.62,145.82 164.96,156.83 				"/>
			</g>
		</g>
		<g class="st1">
			<circle class="st12" cx="123.19" cy="113.41" r="9"/>
			<line class="st12" x1="123.4" y1="85.51" x2="123.33" y2="93.35"/>
			<line class="st12" x1="143.07" y1="93.83" x2="137.48" y2="99.33"/>
			<line class="st12" x1="151.09" y1="113.62" x2="143.25" y2="113.55"/>
			<line class="st12" x1="122.98" y1="141.31" x2="123.05" y2="133.47"/>
			<line class="st12" x1="103.31" y1="132.99" x2="108.9" y2="127.49"/>
			<line class="st12" x1="95.29" y1="113.2" x2="103.13" y2="113.27"/>
			<line class="st12" x1="103.61" y1="93.53" x2="109.11" y2="99.13"/>
		</g>
		<g class="st1">
			<g>
				<path class="st12" d="M201.01,170.84c0,3.6-2.92,6.53-6.53,6.53h-54.39c-3.6,0-6.53-2.92-6.53-6.53v-40.25
					c0-3.61,2.92-6.53,6.53-6.53h54.39c3.6,0,6.53,2.92,6.53,6.53V170.84z"/>
				<line class="st12" x1="133.83" y1="167.58" x2="200.73" y2="167.58"/>
				<g>
					<path class="st12" d="M177.53,189.11c-3.88-2.99-5.81-6.92-5.81-10.84"/>
					<path class="st12" d="M157.03,189.11c3.88-2.99,5.81-6.92,5.81-10.84"/>
				</g>
			</g>
			<line class="st12" x1="153.41" y1="189.34" x2="181.15" y2="189.34"/>
		</g>
	</g>
	<g class="st0">
		<g class="st1">
			
				<ellipse transform="matrix(0.8967 -0.4426 0.4426 0.8967 5.3216 83.7433)" class="st13" cx="182.11" cy="30.47" rx="21.5" ry="21.5"/>
			
				<ellipse transform="matrix(0.5015 -0.8652 0.8652 0.5015 100.5248 273.8292)" class="st13" cx="287.87" cy="49.69" rx="21.89" ry="21.89"/>
			<path class="st13" d="M259.13,170.93l-1.8,19.08l-22.24,2.37c-10.23,0.99-17.22,6.15-19.69,15
				c-5.35,19.19-10.68,57.13-15.48,75.48c-2.18,8.32,5.69,8.12,14.28,8.12l0,0c5.92,0,11.11-3.96,12.66-9.68l15.98-60.53h39.94
				c8.7,0,15.06-6.8,16.63-15.36l7.68-101.99c0.64-8.11-6.04-14.9-14.15-14.41l-7.14,0.4c-8.05,0.45-14.72,6.38-16.11,14.32
				c-0.22,1.27-0.47,2.53-0.73,3.74c-1.41,6.6-5.24,12.43-10.74,16.34c-0.08,0.06-0.16,0.11-0.24,0.17
				c-5.19,3.67-11.2,6.02-17.5,6.9c-6.96,0.97-16.12,2.25-20.62,2.9c-7.8,1.11-15.48,5.87-15.48,14.58c0,0,0,6.97,6.09,6.97"/>
			<path class="st13" d="M232.66,111.58c-2.08-16.61-3.2-30.86-14.92-35.4c-8.28-3.21-19.57-4.39-34.66-4.34
				c-15.07,0.06-26.31,1.4-34.59,4.58c-12.87,4.94-15.05,18.62-16.72,35.59"/>
			<path class="st13" d="M177.81,147.23"/>
			
				<ellipse transform="matrix(0.0961 -0.9954 0.9954 0.0961 19.2812 120.6048)" class="st13" cx="76.05" cy="49.69" rx="21.89" ry="21.89"/>
			<path class="st13" d="M104.2,170.93l1.8,19.08l22.24,2.37c10.23,0.99,17.22,6.15,19.69,15c5.35,19.19,10.68,57.13,15.48,75.48
				c2.18,8.32-5.69,8.12-14.28,8.12l0,0c-5.92,0-11.11-3.96-12.66-9.68l-16.57-60.53H80.57c-8.7,0-15.06-6.8-16.63-15.36
				l-7.68-101.99c-0.64-8.11,6.04-14.9,14.15-14.41l7.14,0.4c8.05,0.45,14.72,6.38,16.11,14.32c0.22,1.27,0.47,2.53,0.73,3.74
				c1.41,6.6,5.24,12.43,10.74,16.34c0.08,0.06,0.16,0.11,0.24,0.17c5.19,3.67,11.2,6.02,17.5,6.9c6.96,0.97,16.12,2.25,20.62,2.9
				c7.8,1.11,15.48,5.87,15.48,14.58c0,0,0,6.97-6.09,6.97"/>
			<polyline class="st13" points="327.32,128.56 318.86,220.67 317.99,291 			"/>
			<line class="st13" x1="278.03" y1="220.77" x2="318.86" y2="220.77"/>
			<polyline class="st13" points="37.1,128.56 45.56,220.67 46.43,291 			"/>
			<line class="st13" x1="86.4" y1="220.77" x2="45.56" y2="220.77"/>
			<path class="st13" d="M273.25,147.23l-6.41,4.04c-4.2,2.65-9.06,4.05-14.02,4.05H110.51c-4.96,0-9.83-1.41-14.02-4.05l-6.41-4.04
				"/>
			<line class="st13" x1="160.44" y1="115.58" x2="162" y2="101.26"/>
			<line class="st13" x1="205.62" y1="115.58" x2="204.06" y2="101.26"/>
		</g>
	</g>
	<g class="st0">
		<g class="st1">
			<circle class="st10" cx="36.19" cy="59.41" r="9"/>
			<line class="st10" x1="36.4" y1="31.51" x2="36.33" y2="39.35"/>
			<line class="st10" x1="56.07" y1="39.83" x2="50.48" y2="45.33"/>
			<line class="st10" x1="64.09" y1="59.62" x2="56.25" y2="59.55"/>
			<line class="st10" x1="35.98" y1="87.31" x2="36.05" y2="79.47"/>
			<line class="st10" x1="16.31" y1="78.99" x2="21.9" y2="73.49"/>
			<line class="st10" x1="8.29" y1="59.2" x2="16.13" y2="59.27"/>
			<line class="st10" x1="16.61" y1="39.53" x2="22.11" y2="45.13"/>
		</g>
		<path class="st14" d="M135.4,89.61l-5.14,2.69 M148.34,87.82c0.79-0.4-0.86-3.36-1.68-3.31l-1.61,0.12
			c-5.76-7.53-17.56-0.67-14.78,7.68c0.06,0.23-0.43,0.32-0.22,0.7l1.62,2.96c0.09,0.19,0.33,0.26,0.51,0.17
			C137.57,93.37,142.95,90.59,148.34,87.82L148.34,87.82L148.34,87.82z M146.29,90.2c1.44,2.21,1.51,5.15-0.06,7.47
			c-2.09,3.08-7.22,3.24-9.35,1.8c-2.13-1.45-2.03-1.91-2.5-3.14 M170.8,121.83l-11.69-0.53l-4.14-11.34
			c-0.99-2.19-2.53-3.6-4.92-4.08l-19.38-3.34l-5.94-6.7l-2.04-15.76 M154.5,178.12l-0.19-25.22l-3.94-15.83l-0.5-21.17l0.2,0.02
			l3.36,9.65c0.36,0.81,0.98,1.33,1.9,1.5l14.8,0.47 M135.01,178.12l3.14-24.14l0.66-11.88c0.54,0,0.5,0,1.04,0l5.42,11.63
			l2.64,24.39 M117.24,80.12l0.69,17.75c0.18,1.92,0.66,2.69,1.52,3.83l9.37,10.8l0.27,0.67l-0.07,22.64l0.47,18.78l-0.88,23.54
			 M127.28,84.69L111.9,69.31h81.61L256,131.8h-81.61l-5-5.01 M132.3,69.31l8.5,8.5 M152.55,89.55l42.25,42.24 M152.71,69.31
			l62.49,62.49 M173.11,69.31l62.49,62.49 M151.7,84.73h57.24 M153.1,100.16h71.26 M162.74,115.58h77.05 M262.05,87.63l-6.04-0.6
			 M246.46,91.98c-0.49,2.59,0.58,5.34,2.92,6.88c3.11,2.04,7.28,1.18,9.33-1.93c0.78-1.19,1.14-2.54,1.11-3.86 M243.66,90.56
			c-0.89-0.07-0.5-3.44,0.28-3.7l1.53-0.51c2.44-9.16,15.96-7.36,16.6,1.42c0.03,0.23,0.51,0.13,0.47,0.56l-0.36,3.35
			c-0.02,0.21-0.2,0.37-0.41,0.35C255.73,91.56,249.69,91.05,243.66,90.56L243.66,90.56L243.66,90.56z M261.84,113.72l1.11,9.41
			l-0.04,0.06l-10.87,4.63 M266.68,177.98l-2.33-22.37l-1.66-19.56l0.05-6.54 M214.04,89.84l6.92,0.6l10.18,8.5L242,102l19.62,4.2
			c3.93,0.89,5.58,2.01,6.36,5.76l1.12,9.18c0.23,2.31,0.6,6.04-2.2,7.01l-10.14,3.71l-1.11-0.01 M243.29,131.48
			c-0.03,1.75-0.07,3.43-0.12,5.01l-5.63,17.63l1.88,23.92 M230.55,106.35l12.58,4.69l0.37,0.6c-0.02,2.54-0.04,5.32-0.07,8.19
			 M259.84,178.04l-3.63-21.95l-3.56-14.19l-0.45-0.06l-6.78,14.35l0.57,21.84 M124.04,122.02H71.89L8.25,195.18h15.32v84.37
			 M148.03,195.18v84.37 M243.22,268.77h24.09 M239.27,254.02h24.09 M235.31,239.27h24.09 M231.36,224.53h24.09 M227.41,209.78
			h24.09 M223.46,195.03h24.09 M244.9,185.15l25.21,94.09 M240.22,185.15l25.21,94.09 M220.81,185.15l25.21,94.09 M216.13,185.15
			l25.21,94.09 M23.57,195.18l55.98-64.36 M349.03,195.18H137.01l-65.11-73.16 M66.02,279.55v-73.05h39.33v73.05 M273.9,122.02
			h10.02l65.12,73.16 M333.97,195.18v84.37 M271.71,206.49h39.33v39.33h-39.33V206.49L271.71,206.49z M171.74,206.49h39.33v39.33
			h-39.33V206.49L171.74,206.49z M167.61,250.06h48.37 M268.29,250.06h48.37 M78.14,217.03h15.11v19.47H78.14V217.03L78.14,217.03z
			 M66.02,243.02h7.3 M205.96,210.06v30.65h-31.24 M305.92,210.06v30.65h-31.24 M22.39,268.77h43.63 M105.35,268.77h43.63
			 M148.03,268.77h85.96 M270.31,268.77h64.37 M6.28,279.55H351"/>
	</g>
	<path class="st15" d="M77.55,141.17c-7.85-1.73-14.03-8.37-14.81-16.8c-0.97-10.44,6.72-19.69,17.16-20.66
		c9.32-0.86,17.69,5.17,20.07,13.9c0.13,0.49,0.25,1,0.35,1.51 M78.5,94.17l-1.06-11.41 M93.15,96.4l4.79-10.41 M104.72,105.66
		l9.35-6.62 M70.16,148.84l-4.79,10.41 M58.59,139.57l-9.36,6.62 M53.2,125.77l-11.41,1.06 M55.44,111.12l-10.41-4.79 M64.7,99.55
		l-6.62-9.36 M214.7,232.03l2.41-4.17c1.23-2.13,0.9-4.76-1.81-4.94h-19.97c-1.69,0-3.15-1.86-2.22-3.39l1.59-2.63
		c0.95-1.57,2.24-1.75,3.82-1.75h38.94c1.59,0,2.29-0.18,3.24-1.75l1.81-2.99c1.12-1.86,0.09-4.17-2.43-4.17h-46.7
		c-2.78-0.09-3.22-1.49-1.68-4l2.84-4.91 M207.13,232.03l2.54-4.39c0.97-1.49,1.79-3.57-0.63-4.72 M203.29,238.68l3.03-5.25
		 M210.87,238.68l3.03-5.25 M155.58,107.43l2.21-7.04c2.31-9.79-17.99-17.08-22.02-6.41l-1.61,4.26c-0.12,0.3,0.02,0.65,0.32,0.77
		l30.17,11.95 M154.95,107.23c-0.3,1.08-1.16,3.13-1.74,4.2c-1.58,2.91-4.5,5.03-8.04,5.45c-5.8,0.69-11.07-3.45-11.76-9.25
		c-0.21-1.72,0.01-3.4,0.57-4.92c0.16-0.44,1.18-2.93,1.4-3.35 M103.93,151.04l20.52,19c1.34,1.62,1.6,2.73,1.75,4.91l-1.12,35.31
		 M113.4,209.95l-0.72-32.05l-11.83-6.98 M123.56,137.91l-22.37,15.73c-1.51,1.09-1.55,2.93-1.43,4.82l1.67,16.1
		c0.36,3.55,0.02,3.82-0.76,7.03l-6.24,28.74 M150.65,157.62l-22.61-5.12l-2.23-2.79l-3.73-22.55 M82.22,210.51l4.42-32.35
		c0.19-1.41,0.2-1.81-0.31-3.55l-6.06-18.96c-1.06-3.89-1.11-7.53,0.06-10.69c1.32-3.54,7.62-10.03,10.37-12.5
		c6.12-5.5,16.98-14.12,25.18-18.61c4.43-2.42,11.93-2.45,15.83,1.2c4.26,3.83,3.8,6.28,4.22,11.2l1.3,15.04l0.22,0.74l16.92,8.13
		 M102.31,152.86l-15.01-10.57 M117.38,221.65h41.89v14.5c0,1.2-0.98,2.18-2.18,2.18h-37.53c-1.2,0-2.18-0.98-2.18-2.18V221.65
		L117.38,221.65z M160.79,221.65v-5.7c0-0.62-0.52-1.13-1.13-1.13h-42.66c-0.62,0-1.13,0.52-1.13,1.13v5.7H160.79L160.79,221.65z
		 M144.75,212.03v-2.36c0-0.8-0.66-1.46-1.46-1.46h-9.94c-0.8,0-1.46,0.66-1.46,1.46v2.36 M125.04,221.65v3.5 M151.6,221.65v3.5
		 M333.21,164.9H352 M276.45,164.9h14.86 M124.11,164.9h23.58 M4.88,214.71l64.39-49.81h11.29 M248.26,110.81h-77.2l-34.15,80.16
		l3.2,5.58h118.27l12.39-29.07 M255.01,190.97l3.37,5.58 M136.91,190.97h118.1l23.2-54.45 M277.41,128.8H164.42 M272.66,149.15
		H154.78 M264.17,169.49h-118.1 M255.26,116.89l-31.67,74.32 M229.13,110.81l-34.26,80.4 M200.41,110.81l-34.26,80.4 M316.03,154.16
		l13.25-9.06 M261.07,107.05l-3.01-6.73c-3.43-9.46,15.88-19.06,21.13-8.93l2.09,4.04c0.16,0.29,0.06,0.65-0.23,0.8l-28.58,15.38
		 M261.67,106.78c0.43,1.03,1.52,2.97,2.22,3.97c1.91,2.7,5.05,4.47,8.62,4.48c5.84,0.01,10.59-4.71,10.61-10.55
		c0.01-1.74-0.41-3.37-1.14-4.82c-0.21-0.42-1.52-2.78-1.78-3.16 M295.69,210.51l8.23-33.21l12.41-6.98 M311.05,150.29l-18.9,18.57
		c-1.17,1.51-1.53,2.69-1.75,4.92l-5.81,37.05 M295.06,138.28l20.96,15.3c1.06,0.75,1.45,2.04,1.48,3.43l-1.75,18.12
		c-0.36,3.55-0.02,3.82,0.76,7.03l7.4,28.74 M335.55,209.91l-5.57-31.19c-0.19-1.41-0.2-1.81,0.31-3.55l5.48-19.54
		c2.85-10.45-3.21-16.7-10.43-23.19c-6.12-5.5-15.82-13.54-24.02-18.04c-10.32-5.65-22.9,0.55-20.28,10.15l3.7,20.73l-0.15,0.76
		l-15.31,11.44 M270.15,168.21l23.04-12.67c2.28-1.25,2.82-3.52,2.9-5.99l-1.53-25.38"/>
	<g class="st0">
		<path class="st14" d="M102.06,217.79v6.2 M55.05,217.79v6.2 M89.93,200.75v-4.17c0-1.42-1.17-2.58-2.58-2.58H69.76
			c-1.41,0-2.58,1.17-2.58,2.58v4.17 M118.33,217.79v-10.1c0-1.1-0.92-2-2.01-2H40.79c-1.09,0-2.01,0.92-2.01,2v10.1H118.33
			L118.33,217.79z M41.46,217.79h74.18v25.68c0,2.13-1.74,3.87-3.87,3.87H45.33c-2.13,0-3.87-1.74-3.87-3.87V217.79L41.46,217.79z
			 M100.44,268.72H80.16 M72.28,274.57l1.71,3.53h6.17v-18.77h-6.17l-1.71,3.53c-5.68,1.55-14.78-3.52-22.79-3.05
			c-10.63,0.62-10.63,17.18,0,17.8C57.5,278.09,66.61,273.02,72.28,274.57L72.28,274.57z M100.44,271.79l5.43,2.82
			c1.99,0.52,7.23-0.7,9.73-1.03v-9.72c-2.5-0.32-7.74-1.55-9.73-1.03l-5.43,2.82V271.79z"/>
		<path class="st16" d="M214.36,223.09l2.51-8.68 M305.06,191.9l-0.39-6.87l-5.07-9.66c-0.74-1.27-1.8-1.58-3.13-1.03l-19.32,8.17
			c-3.25,1.38-3.54,4.1-2.71,7.13c0.77,2.82,2.09,4.88,2.55,6.34c0.08,0.25,0.04,0.79-0.35,0.96l-4.17,1.91
			c0.5,2.37,1.83,4.17,4.44,4.96c2.79,0.85,6.07,1.06,8.78,1.06c9.16,0.01,21.45-6.29,23.99-9.32l5.46-8.27l-1.97-5.31l-9.3,3.81
			 M292.48,176.06l5.52,10.99l0.37,7.63 M285.98,178.76l5.53,11.03l0.36,7.6 M279.48,181.46l5.5,10.95l0.39,7.68 M274.52,190.45
			l-57.82,24.03l-44.72-66.46 M323.55,170.07l-22.25,9.24 M181.98,162.95l105.96-44.04 M193.69,179.67l106.48-44.26 M203.68,197.11
			l109.5-45.51 M199.33,136.65l44.85,66.66 M225.79,125.3l44.85,66.66 M252.28,114.65l41.03,60.98 M272.47,198.88l-58.11,24.21
			l-42.92-64.65l0.55-10.42l106.84-44.41l44.72,66.46l-2.35,8.61l-8.03,3.32 M182.94,249.35l0.03-8.99
			c0.02-2.92,1.39-4.49,4.18-4.66 M182.91,259.32l0.03-7.88 M176.76,259.3l0.03-7.88 M176.79,249.33l0.03-8.99
			c0.02-2.92,1.47-4.49,4.4-4.66l13.65,0.18c2.39,0.03,4.36-1.94,4.37-4.34l0.01-2.95c0.01-2.4-1.99-4.35-4.34-4.37l-17.55-0.13
			c-2.35-0.01-4.34-1.97-4.34-4.37l0.02-4.69c0.01-2.39,1.97-4.36,4.37-4.34l7.77,0.09c4.26-0.12,6.14-2.22,6-5.99l0.04-16.08
			 M268.48,100.28c-0.84-2.07-1.39-4.29-1.6-6.63c-1.09-12.52,8.18-23.54,20.7-24.62c12.51-1.09,23.54,8.18,24.62,20.69
			c0.99,11.44-6.67,21.64-17.55,24.13 M286.28,60.66l-1.08-12.44 M302.23,63.19l5.29-11.31 M314.78,73.35l10.23-7.15 M320.56,88.42
			L333,87.34 M318.04,104.37l11.31,5.28 M307.87,116.91l7.15,10.23 M258.52,94.94l-12.44,1.08 M261.05,78.99l-11.31-5.28
			 M271.21,66.44l-7.15-10.23 M172.51,55.88v5.87 M216.05,55.88v5.87 M212.8,19.36c7.77,5.71,13.44,14.75,14.32,25
			c0.11,2.46,2.23,0.15,2.73,5.04c0.24,2.35,0.33,2.95,0.26,5.25c-0.05,0.5-0.19,0.91-0.39,1.22h-70.87
			c-0.21-0.31-0.34-0.71-0.39-1.22c-0.08-2.3,0.01-2.91,0.25-5.25c0.5-4.89,2.62-2.58,2.73-5.04c0.88-10.25,6.54-19.29,14.32-25
			 M184.99,42.94l-4.94-27.14c1.25-6.87,27.19-6.87,28.44,0l-4.94,27.14 M221.6,55.85c2.44,0.32,4.24,2.6,4.24,5.68
			c0,3.64-2.53,7.02-5.64,7.54c-0.77,5.05-1.93,9.77-3.44,12.53c-9.44,17.22-35.52,17.22-44.95,0c-1.52-2.76-2.67-7.48-3.44-12.53
			c-3.12-0.52-5.65-3.9-5.65-7.54c0-3.08,1.8-5.36,4.24-5.68 M138.1,116.95c8.97-7.18,14.9-11.14,26.74-14.12
			c4.1-1.03,8.39-1.83,12.81-2.38l16.63,17.61l16.62-17.61c4.42,0.54,8.71,1.35,12.81,2.38c7.3,1.84,14.26,4.86,19.59,8.9
			 M139.89,168.63c-0.31,5.36-2.11,10.3-7.45,10.38h-1.52c-5.34-0.08-7.14-5.02-7.45-10.38 M126.08,140.98
			c0.32-3.1,0.38-7.22-0.08-8.9l-3.08-1.91v-5.39h17.49v5.39l-3.08,1.91c-0.39,1.43-0.4,6.77-0.2,9.27 M131.68,106.48v18.3
			 M129.12,106.48l-3.15-6.07c-0.58-2.22,0.79-8.08,1.15-10.87h9.12c0.36,2.8,1.74,8.65,1.15,10.87l-3.15,6.07H129.12L129.12,106.48
			z M116.58,139.05l8.32-7.35l0.01,0l0.11,9.84l15.11-0.07c1.46,0.19,2.99,1.07,2.99,2.51l-0.05,21.48
			c0.05,4.12-6.68,4.51-15.47,4.52c-3.28,0-7.34,0.39-9.27-1.92C112.71,161.12,115.08,140.84,116.58,139.05L116.58,139.05z
			 M143.1,148.31h-13.66 M143.1,155.35h-13.66 M143.1,162.38h-13.66 M170.52,101.75v32.75 M160.43,134.5v-30.02 M217.86,128.92
			v-27.2 M227.95,104.41v20.19 M168.66,142.06h-7.24 M154.69,197.53V134.4h49.6 M66.85,69.16l25.42,28.56h26.58 M156.77,97.72
			l-25.42-28.56h-64.5L42,97.72h5.98v32.11 M65.17,104.01h13.6v13.6h-13.6V104.01L65.17,104.01z M96.57,97.72v32.11"/>
	</g>
	<g class="st0">
		<g class="st1">
			<path class="st10" d="M91.63,138.25c-9.66-5.34-15.33-16.39-13.3-27.87c2.56-14.44,16.33-24.07,30.77-21.51
				c12.34,2.18,21.17,12.57,21.88,24.55"/>
			<line class="st10" x1="176.04" y1="66.52" x2="149.39" y2="85.16"/>
			<line class="st10" x1="120.79" y1="30.11" x2="115.12" y2="62.14"/>
			<line class="st10" x1="55.98" y1="43.43" x2="74.62" y2="70.09"/>
			<line class="st10" x1="19.57" y1="98.68" x2="51.6" y2="104.35"/>
			<line class="st10" x1="32.89" y1="163.5" x2="59.55" y2="144.86"/>
		</g>
		<g class="st1">
			<line class="st10" x1="141.56" y1="126.68" x2="121.48" y2="170.98"/>
			<line class="st10" x1="168.31" y1="126.68" x2="148.23" y2="170.98"/>
			<polygon class="st10" points="185.65,182.65 216.33,115.01 106.82,115.01 76.15,182.65 			"/>
			<polyline class="st10" points="216.33,115.01 247,182.65 240.4,182.65 			"/>
			<line class="st10" x1="105.29" y1="148.83" x2="185.47" y2="148.83"/>
			<polygon class="st10" points="177.46,170.98 197.55,126.68 114.38,126.68 94.3,170.98 			"/>
		</g>
		<polyline class="st17" points="90.32,182.65 90.32,259.49 240.4,259.49 240.4,169.52 		"/>
		<line class="st17" x1="190.58" y1="171.79" x2="190.58" y2="259.49"/>
		<polyline class="st17" points="208.68,259.49 208.68,194.32 222.29,194.32 222.29,259.49 		"/>
	</g>
	<g>
		<g>
			<path d="M100.88,300.86c-6.34,0-11.49-5.15-11.49-11.49v-9.08c0-1.17-0.95-2.13-2.13-2.13h-22.7
				c-11.33-0.01-20.55-9.24-20.57-20.57V80.57C44.01,69.24,53.24,60.01,64.57,60h13.61c3.83,0,6.95,3.12,6.95,6.95v27.23
				c0,1.18,0.95,2.13,2.13,2.13h181.56c1.17,0,2.13-0.95,2.13-2.13V66.95c0-3.83,3.12-6.95,6.95-6.95h13.62
				c11.33,0.01,20.55,9.24,20.57,20.57v177.02c0.01,5.5-2.13,10.66-6.02,14.55c-3.88,3.88-9.04,6.02-14.53,6.02c0,0-20.49,0-20.49,0
				c-0.77,0-1.47,0.41-1.85,1.08c-0.67,1.19-1.67,2.14-2.89,2.76l-37.26,18.63c-0.3,0.15-0.67,0.23-1.03,0.23L100.88,300.86z
				 M100.88,255.47c-3.68,0-6.67,2.99-6.67,6.67v27.23c0,3.68,2.99,6.67,6.67,6.67h18.16c1.18,0,2.13-0.95,2.13-2.13v-36.31
				c0-1.18-0.95-2.13-2.13-2.13H100.88z M146.27,278.16c-1.18,0-2.13,0.95-2.13,2.13v13.62c0,1.18,0.95,2.13,2.13,2.13h77.16
				c1.18,0,2.13-0.95,2.13-2.13v-13.62c0-1.17-0.95-2.13-2.13-2.13H146.27z M128.11,255.46c-1.17,0-2.13,0.95-2.13,2.13v36.31
				c0,1.18,0.95,2.13,2.13,2.13h9.08c1.17,0,2.13-0.95,2.13-2.13v-36.31c0-1.17-0.95-2.13-2.13-2.13H128.11z M232.51,258.27
				c-0.39,0-0.78,0.11-1.12,0.32c-0.63,0.39-1.01,1.07-1.01,1.81v30.7c0,0.74,0.38,1.42,1.01,1.81c0.34,0.21,0.73,0.32,1.12,0.32
				c0.33,0,0.65-0.07,0.95-0.22l9.08-4.54c0.72-0.36,1.18-1.1,1.18-1.9v-21.62c0-0.81-0.46-1.54-1.18-1.9l-9.08-4.54
				C233.17,258.34,232.84,258.27,232.51,258.27z M250.67,267.35c-0.39,0-0.78,0.11-1.12,0.32c-0.63,0.39-1.01,1.07-1.01,1.81v12.55
				c0,0.74,0.38,1.42,1.01,1.81c0.34,0.21,0.73,0.32,1.12,0.32c0.33,0,0.65-0.07,0.95-0.23l12.53-6.27c0.72-0.36,1.17-1.1,1.17-1.9
				s-0.45-1.54-1.17-1.9l-12.53-6.27C251.32,267.42,251,267.35,250.67,267.35z M227.98,250.64c0.37,0,0.74,0.09,1.08,0.25
				l37.27,18.64c1.21,0.61,2.21,1.56,2.88,2.74c0.38,0.66,1.08,1.07,1.85,1.07h20.47c4.22-0.01,8.18-1.65,11.16-4.63
				c4.51-4.53,5.84-11.26,3.39-17.16c-2.45-5.89-8.16-9.7-14.54-9.7h-13.63c-3.83,0-6.95-3.12-6.95-6.95V103.26
				c0-1.18-0.95-2.13-2.13-2.13H87.26c-1.18,0-2.13,0.95-2.13,2.13V234.9c0,3.83-3.12,6.95-6.95,6.95H64.57
				c-5.61,0-10.83,3.02-13.64,7.87c-2.8,4.86-2.8,10.89,0,15.75c2.8,4.86,8.03,7.87,13.64,7.87h22.7c1.18,0,2.13-0.95,2.13-2.13
				v-9.08c0-6.34,5.15-11.49,11.49-11.49H227.98z M146.27,255.46c-1.18,0-2.13,0.95-2.13,2.13v13.62c0,1.17,0.95,2.13,2.13,2.13
				h77.16c1.18,0,2.13-0.95,2.13-2.13v-13.62c0-1.17-0.95-2.13-2.13-2.13H146.27z M291.56,237.03c4.41,0,8.78,1.46,12.3,4.11
				c0.38,0.28,0.83,0.43,1.28,0.43c0.32,0,0.65-0.07,0.95-0.22c0.72-0.36,1.18-1.1,1.18-1.9V80.57c0-8.68-7.06-15.75-15.74-15.75
				h-13.62c-1.17,0-2.13,0.95-2.13,2.13V234.9c0,1.17,0.95,2.13,2.13,2.13H291.56z M64.57,64.82c-8.68,0-15.75,7.06-15.75,15.75
				v158.87c0,0.81,0.46,1.54,1.18,1.9c0.3,0.15,0.63,0.22,0.95,0.22c0.45,0,0.9-0.14,1.28-0.43c3.53-2.65,7.9-4.11,12.32-4.11h13.64
				c1.17,0,2.13-0.95,2.13-2.13V66.95c0-1.17-0.95-2.13-2.13-2.13H64.57z"/>
			<rect x="100" y="88" class="st18" width="155" height="21"/>
		</g>
		<g>
			<path class="st19" d="M227.26,229.8c-4.63,0-8.57-3.47-9.15-8.06c-0.58-4.6,2.36-8.94,6.85-10.1c0.54-0.14,0.92-0.63,0.92-1.19
				V152.6c0-3.65,2.97-6.61,6.61-6.61h15.68c1.27-0.01,2.44-0.63,3.16-1.67c0.71-1.04,0.87-2.36,0.42-3.54l-14.22-36.59
				c-0.56-1.47-2-2.46-3.58-2.46h-11.32c-0.38,0-0.75,0.18-0.98,0.49c-0.23,0.31-0.31,0.7-0.2,1.07l7.06,24.69
				c0.34,1.2,0.1,2.51-0.65,3.51c-0.75,1-1.95,1.59-3.19,1.59h-94.07c-1.25,0-2.44-0.6-3.19-1.59c-0.75-1-1-2.31-0.65-3.51
				l7.06-24.69c0.11-0.37,0.03-0.77-0.2-1.07s-0.59-0.49-0.98-0.49h-11.31c-1.59,0-3.03,0.99-3.59,2.46l-14.22,36.58
				c-0.45,1.18-0.3,2.51,0.41,3.55c0.71,1.04,1.89,1.67,3.15,1.67h15.68c3.65,0,6.61,2.97,6.61,6.61v57.86
				c0,0.56,0.38,1.05,0.92,1.19c4.49,1.16,7.43,5.5,6.85,10.1c-0.58,4.6-4.52,8.06-9.15,8.06c-4.63,0-8.57-3.47-9.15-8.06
				c-0.58-4.6,2.36-8.94,6.85-10.1c0.54-0.14,0.92-0.63,0.92-1.19V152.6c0-2.12-1.72-3.84-3.84-3.84h-15.68
				c-2.18-0.01-4.21-1.08-5.44-2.88c-1.23-1.8-1.49-4.09-0.71-6.12l14.21-36.58c0.97-2.53,3.44-4.23,6.15-4.23h12.83
				c0.55,0,1.03-0.36,1.18-0.89l5.64-19.73c0.49-1.7,2.08-2.89,3.85-2.9h65.69c1.77,0,3.36,1.2,3.85,2.91l5.63,19.72
				c0.15,0.53,0.63,0.89,1.18,0.89l12.83,0c2.71,0,5.18,1.7,6.15,4.22l14.21,36.59c0.79,2.03,0.52,4.32-0.71,6.12
				c-1.23,1.8-3.27,2.88-5.45,2.88h-15.67c-2.12,0-3.84,1.72-3.84,3.84v57.86c0,0.56,0.38,1.05,0.92,1.19
				c4.49,1.16,7.43,5.5,6.85,10.1C235.83,226.33,231.89,229.8,227.26,229.8z M227.26,214.08c-3.56,0-6.45,2.89-6.45,6.45
				c0,3.56,2.89,6.45,6.45,6.45c3.56,0,6.45-2.89,6.45-6.45C233.71,216.98,230.82,214.08,227.26,214.08z M127.97,214.08
				c-3.56,0-6.45,2.89-6.45,6.45c0,3.56,2.89,6.45,6.45,6.45c3.56,0,6.45-2.89,6.45-6.45C134.42,216.98,131.53,214.08,127.97,214.08
				z M204.17,112.18c-0.36,0-0.7,0.16-0.93,0.43c-0.23,0.27-0.34,0.63-0.28,0.98l2.41,15.68c0.09,0.6,0.61,1.04,1.21,1.04h18.07
				c0.38,0,0.75-0.18,0.98-0.49c0.23-0.31,0.31-0.7,0.2-1.07l-4.48-15.68c-0.15-0.53-0.63-0.89-1.18-0.89H204.17z M180.23,112.18
				c-0.68,0-1.23,0.55-1.23,1.23v15.68c0,0.68,0.55,1.23,1.23,1.23h21.07c0.36,0,0.7-0.16,0.93-0.43c0.23-0.27,0.34-0.63,0.28-0.98
				l-2.41-15.68c-0.09-0.6-0.61-1.04-1.21-1.04H180.23z M156.75,112.18c-0.61,0-1.13,0.45-1.21,1.05l-2.25,15.68
				c-0.05,0.35,0.05,0.71,0.29,0.98c0.23,0.27,0.57,0.42,0.93,0.42H175c0.68,0,1.23-0.55,1.23-1.23v-15.68
				c0-0.68-0.55-1.23-1.23-1.23H156.75z M135.06,112.18c-0.55,0-1.03,0.36-1.18,0.89l-4.48,15.68c-0.11,0.37-0.03,0.77,0.2,1.07
				c0.23,0.31,0.59,0.49,0.98,0.49h18.64c0.61,0,1.13-0.45,1.21-1.05l2.24-15.68c0.05-0.35-0.05-0.71-0.29-0.98
				c-0.23-0.27-0.57-0.42-0.93-0.42H135.06z M201.36,93.89c-0.36,0-0.7,0.16-0.93,0.43c-0.23,0.27-0.34,0.63-0.28,0.98l2.01,13.06
				c0.09,0.6,0.61,1.04,1.21,1.04h15.31c0.38,0,0.75-0.18,0.98-0.49c0.23-0.31,0.31-0.7,0.2-1.07l-3.73-13.06
				c-0.15-0.53-0.63-0.89-1.18-0.89H201.36z M180.23,93.89c-0.68,0-1.23,0.55-1.23,1.23v13.06c0,0.68,0.55,1.23,1.23,1.23h17.85
				c0.36,0,0.7-0.16,0.93-0.43c0.23-0.27,0.34-0.63,0.28-0.98l-2.01-13.06c-0.09-0.6-0.61-1.04-1.21-1.04H180.23z M159.36,93.89
				c-0.61,0-1.13,0.45-1.21,1.05l-1.87,13.06c-0.05,0.35,0.05,0.71,0.29,0.98c0.23,0.27,0.57,0.42,0.93,0.42H175
				c0.68,0,1.23-0.55,1.23-1.23l0-13.06c0-0.32-0.13-0.64-0.36-0.87c-0.23-0.23-0.54-0.36-0.87-0.36H159.36z M140.29,93.89
				c-0.55,0-1.03,0.36-1.18,0.89l-3.73,13.06c-0.11,0.37-0.03,0.77,0.2,1.07c0.23,0.31,0.59,0.49,0.98,0.49h15.65
				c0.61,0,1.13-0.45,1.21-1.05l1.87-13.06c0.05-0.35-0.05-0.71-0.29-0.98c-0.23-0.27-0.57-0.42-0.93-0.42H140.29z M198.95,78.21
				c-0.36,0-0.7,0.16-0.93,0.43c-0.23,0.27-0.34,0.63-0.28,0.98l1.61,10.45c0.09,0.6,0.61,1.04,1.21,1.04h12.89
				c0.38,0,0.75-0.18,0.98-0.49c0.23-0.31,0.31-0.7,0.2-1.07l-2.99-10.45c-0.15-0.53-0.63-0.89-1.18-0.89H198.95z M180.23,78.21
				c-0.68,0-1.23,0.55-1.23,1.23v10.45c0,0.68,0.55,1.23,1.23,1.23h15.04c0.36,0,0.7-0.16,0.93-0.43c0.23-0.27,0.34-0.63,0.28-0.98
				l-1.61-10.45c-0.09-0.6-0.61-1.04-1.21-1.04H180.23z M161.6,78.21c-0.61,0-1.13,0.45-1.21,1.05l-1.49,10.45
				c-0.05,0.35,0.05,0.71,0.29,0.98c0.23,0.27,0.57,0.42,0.93,0.42H175c0.68,0,1.23-0.55,1.23-1.23V79.44
				c0-0.68-0.55-1.23-1.23-1.23H161.6z M144.77,78.21c-0.55,0-1.03,0.36-1.18,0.89l-2.99,10.45c-0.11,0.37-0.03,0.77,0.2,1.07
				s0.59,0.49,0.98,0.49h13.04c0.61,0,1.13-0.45,1.21-1.05l1.49-10.45c0.05-0.35-0.05-0.71-0.29-0.98
				c-0.23-0.27-0.57-0.42-0.93-0.42H144.77z"/>
			<path class="st19" d="M154.1,229.76c-0.77,0-1.39-0.62-1.39-1.39v-5.23c0-0.68-0.55-1.23-1.23-1.23h-5.23
				c-0.77,0-1.39-0.62-1.39-1.39c0-0.77,0.62-1.39,1.39-1.39h5.23c0.68,0,1.23-0.55,1.23-1.23v-5.23c0-0.77,0.62-1.39,1.39-1.39
				c0.77,0,1.39,0.62,1.39,1.39v5.23c0,0.68,0.55,1.23,1.23,1.23h5.23c0.77,0,1.39,0.62,1.39,1.39c0,0.77-0.62,1.39-1.39,1.39h-5.23
				c-0.68,0-1.23,0.55-1.23,1.23v5.23C155.49,229.14,154.86,229.76,154.1,229.76z"/>
			<path class="st19" d="M193.29,221.92c-0.77,0-1.39-0.62-1.39-1.39s0.62-1.39,1.39-1.39h15.68c0.77,0,1.39,0.62,1.39,1.39
				s-0.62,1.39-1.39,1.39H193.29z"/>
			<path class="st19" d="M177.61,211.47c-19.5,0-35.36-15.86-35.36-35.36s15.86-35.36,35.36-35.36
				c19.47,0.02,35.34,15.88,35.36,35.36C212.97,195.61,197.11,211.47,177.61,211.47z M177.61,143.54
				c-17.96,0-32.58,14.62-32.58,32.58c0,17.96,14.62,32.58,32.58,32.58c17.95-0.02,32.56-14.63,32.58-32.58
				C210.19,158.15,195.58,143.54,177.61,143.54z"/>
			<path class="st19" d="M171.84,198.41c-0.38,0-0.76-0.09-1.1-0.25c-1.04-0.49-1.65-1.58-1.52-2.72l1.77-16.59
				c0.04-0.35-0.07-0.69-0.31-0.95c-0.23-0.26-0.56-0.41-0.91-0.41h-4c-1.05,0-2-0.63-2.41-1.6c-0.43-1-0.22-2.15,0.54-2.94
				l17.62-18.33c0.49-0.52,1.16-0.81,1.86-0.81c0.38,0,0.75,0.08,1.09,0.25c1.04,0.49,1.65,1.58,1.53,2.72l-1.77,16.59
				c-0.04,0.35,0.07,0.69,0.31,0.95c0.23,0.26,0.56,0.41,0.91,0.41h3.99c1.06,0,2,0.63,2.41,1.6c0.43,1,0.22,2.15-0.54,2.94
				L173.7,197.6C173.21,198.12,172.54,198.41,171.84,198.41z M181.61,159.1c-0.33,0-0.65,0.13-0.88,0.38l-12.66,13.18
				c-0.34,0.35-0.44,0.88-0.24,1.33c0.19,0.45,0.64,0.75,1.13,0.75h3.73c0.39,0,0.77,0.17,1.03,0.46c0.26,0.29,0.39,0.68,0.35,1.07
				l-1.65,15.51c-0.06,0.52,0.23,1.02,0.7,1.24c0.17,0.08,0.34,0.11,0.52,0.11c0.33,0,0.65-0.13,0.88-0.38l12.66-13.18
				c0.34-0.35,0.44-0.88,0.24-1.33c-0.19-0.45-0.64-0.75-1.13-0.75h-3.73c-0.39,0-0.76-0.17-1.02-0.46
				c-0.26-0.29-0.39-0.68-0.35-1.07l1.64-15.51c0.06-0.52-0.23-1.02-0.7-1.24C181.96,159.14,181.78,159.1,181.61,159.1z"/>
		</g>
		<g>
			<path class="st10" d="M197.22,68.8c1.09-2.57,1.69-5.39,1.69-8.35c0-2.96-0.6-5.79-1.69-8.35c-1.09-2.57-2.66-4.88-4.6-6.82
				c-1.94-1.94-4.25-3.51-6.82-4.6c-2.57-1.09-5.39-1.69-8.35-1.69s-5.79,0.6-8.35,1.69c-2.57,1.09-4.88,2.66-6.82,4.6
				c-1.94,1.94-3.51,4.25-4.6,6.82c-1.09,2.57-1.69,5.39-1.69,8.35c0,2.96,0.6,5.79,1.69,8.35"/>
			<line class="st10" x1="118.8" y1="61.5" x2="140.85" y2="61.5"/>
			<line class="st10" x1="135.38" y1="19.8" x2="150.93" y2="35.39"/>
			<line class="st10" x1="176.55" y1="2" x2="176.55" y2="24.09"/>
			<line class="st10" x1="218.37" y1="18.58" x2="202.55" y2="34.17"/>
			<line class="st10" x1="236.17" y1="59.77" x2="213.85" y2="59.77"/>
		</g>
	</g>
</g>
<g id="Layer_2" class="st0">
	<g>
		<g class="st1">
			<g>
				<polyline class="st20" points="55.92,177.69 37,177.69 37,291.88 102,291.88 102,177.69 83.08,177.69 				"/>
				<polyline class="st20" points="83.08,177.69 83.08,164.35 55.92,164.35 55.92,177.69 				"/>
			</g>
		</g>
		
			<rect x="62.94" y="249.36" transform="matrix(6.098950e-11 -1 1 6.098950e-11 -202.8776 341.8776)" class="st21" width="13.12" height="46.04"/>
		
			<rect x="62.94" y="225.49" transform="matrix(6.098950e-11 -1 1 6.098950e-11 -179.0093 318.0093)" class="st21" width="13.12" height="46.04"/>
		
			<rect x="62.94" y="201.62" transform="matrix(6.085094e-11 -1 1 6.085094e-11 -155.141 294.141)" class="st21" width="13.12" height="46.04"/>
	</g>
	<g>
		<g class="st1">
			<polyline class="st22" points="53.64,191.42 60.15,191.42 60.15,202.55 			"/>
			<polyline class="st22" points="71.79,191.42 65.28,191.42 65.28,196.99 71.79,196.99 71.79,202.55 65.28,202.55 			"/>
			<line class="st22" x1="85.71" y1="191.12" x2="77.8" y2="202.55"/>
		</g>
		<circle class="st23" cx="85.71" cy="202.55" r="0.22"/>
		<circle class="st23" cx="77.8" cy="191.12" r="0.22"/>
	</g>
	<g>
		<g class="st1">
			<path class="st24" d="M299.27,87.13c-2.34,0-4.24-1.48-4.24-3.3c0-1.34,1.06-2.54,2.6-3.05v-4.95c-0.58,1.28-2.16,2.2-4,2.2
				c-1.97,0-3.64-1.06-4.11-2.48v5.23c1.55,0.51,2.6,1.71,2.6,3.05c0,1.82-1.9,3.3-4.24,3.3s-4.24-1.48-4.24-3.3
				c0-1.34,1.06-2.54,2.6-3.05V56.61h-2.5v7.25c0,0.19-0.1,0.37-0.27,0.51l-5.25,4.09v8.32c1.55,0.51,2.6,1.71,2.6,3.05
				c0,1.82-1.9,3.3-4.24,3.3c-2.34,0-4.24-1.48-4.24-3.3c0-1.34,1.06-2.54,2.6-3.05V67.7c0-0.19,0.1-0.37,0.27-0.51l5.25-4.09v-1.97
				c-0.42,1.48-2.12,2.58-4.14,2.58c-2.02,0-3.72-1.11-4.14-2.58v13.04c0,0.19-0.1,0.37-0.27,0.51l-5.36,4.17v1.92
				c1.54,0.51,2.6,1.71,2.6,3.05c0,1.82-1.9,3.3-4.24,3.3c-2.34,0-4.24-1.48-4.24-3.3c0-1.34,1.06-2.54,2.6-3.05V78.1
				c0-0.19,0.1-0.37,0.27-0.51l5.36-4.17V56.61h-8.32c-9.7,0-17.6-6.15-17.6-13.7c0-7.44,7.65-13.51,17.15-13.7
				c1.76-7.12,9.92-12.41,19.31-12.41c1.55,0,3.09,0.14,4.59,0.42C288.56,12.06,296,9,304.06,9c11.65,0,21.8,6.63,23.86,15.51
				c9.76,1.49,16.77,8.1,16.77,15.9c0,8.85-9.17,16.07-20.5,16.2v6.49l9.7,7.55c0.17,0.14,0.27,0.32,0.27,0.51v4.84
				c1.55,0.51,2.6,1.71,2.6,3.05c0,1.82-1.9,3.3-4.24,3.3c-2.34,0-4.24-1.48-4.24-3.3c0-1.34,1.06-2.54,2.6-3.05v-4.08l-9.7-7.56
				c-0.1-0.07-0.17-0.16-0.21-0.26c-0.3,1.6-2.07,2.82-4.2,2.82c-2.02,0-3.72-1.11-4.14-2.58v10.88c1.54,0.51,2.6,1.71,2.6,3.05
				c0,1.82-1.9,3.3-4.24,3.3c-2.34,0-4.24-1.48-4.24-3.3c0-1.34,1.06-2.54,2.6-3.05V56.61h-2.5v14.24c0,0.19-0.1,0.37-0.27,0.51
				l-5.68,4.42v4.99c1.55,0.51,2.6,1.71,2.6,3.05C303.51,85.64,301.61,87.13,299.27,87.13z M299.27,83.07
				c-0.53,0-0.97,0.34-0.97,0.75c0,0.42,0.43,0.75,0.97,0.75c0.53,0,0.97-0.34,0.97-0.75C300.24,83.41,299.8,83.07,299.27,83.07z
				 M287.89,83.07c-0.53,0-0.97,0.34-0.97,0.75c0,0.42,0.43,0.75,0.97,0.75s0.97-0.34,0.97-0.75
				C288.85,83.41,288.42,83.07,287.89,83.07z M264.92,83.07c-0.53,0-0.97,0.34-0.97,0.75c0,0.42,0.43,0.75,0.97,0.75
				c0.53,0,0.97-0.34,0.97-0.75C265.89,83.41,265.45,83.07,264.92,83.07z M276.59,79.08c-0.53,0-0.97,0.34-0.97,0.75
				s0.43,0.75,0.97,0.75c0.53,0,0.97-0.34,0.97-0.75S277.12,79.08,276.59,79.08z M332.53,78.3c-0.53,0-0.97,0.34-0.97,0.75
				s0.43,0.75,0.97,0.75c0.53,0,0.97-0.34,0.97-0.75S333.07,78.3,332.53,78.3z M311,77.52c-0.53,0-0.97,0.34-0.97,0.75
				c0,0.42,0.43,0.75,0.97,0.75c0.53,0,0.97-0.34,0.97-0.75C311.97,77.86,311.54,77.52,311,77.52z M293.63,73.97
				c-0.53,0-0.97,0.34-0.97,0.75s0.43,0.75,0.97,0.75c0.53,0,0.97-0.34,0.97-0.75S294.17,73.97,293.63,73.97z M295.27,71.68
				c1.47,0.49,2.51,1.6,2.6,2.86c0.01-0.01,0.02-0.02,0.03-0.03l5.68-4.42V56.61h-2.5v8.91c0,0.19-0.1,0.37-0.27,0.51l-5.54,4.31
				V71.68z M289.53,61.24v12.67c0.33-0.99,1.25-1.83,2.47-2.23v-2.09c0-0.19,0.1-0.37,0.27-0.51l5.54-4.31v-3.75
				c-0.36,1.54-2.1,2.7-4.17,2.7C291.66,63.72,290,62.66,289.53,61.24z M316.78,62.88c-0.53,0-0.97,0.34-0.97,0.75
				c0,0.42,0.43,0.75,0.97,0.75c0.53,0,0.97-0.34,0.97-0.75C317.75,63.22,317.31,62.88,316.78,62.88z M318.42,60.58
				c1.26,0.42,2.2,1.29,2.5,2.33v-6.31h-2.5V60.58z M312.64,56.61v6.3c0.3-1.04,1.24-1.92,2.5-2.33v-3.97H312.64z M293.63,59.66
				c-0.53,0-0.97,0.34-0.97,0.75c0,0.41,0.43,0.75,0.97,0.75c0.53,0,0.97-0.34,0.97-0.75C294.6,60,294.17,59.66,293.63,59.66z
				 M276.33,59.66c-0.53,0-0.97,0.34-0.97,0.75c0,0.41,0.43,0.75,0.97,0.75c0.53,0,0.97-0.34,0.97-0.75
				C277.3,60,276.86,59.66,276.33,59.66z M295.31,57.38c1.31,0.43,2.25,1.34,2.5,2.43v-3.2h-2.5V57.38z M277.97,57.37
				c1.27,0.42,2.2,1.3,2.5,2.33v-3.09h-2.5V57.37z M272.19,56.61v3.09c0.3-1.04,1.24-1.92,2.5-2.33v-0.75H272.19z M289.53,56.61
				v2.98c0.33-1,1.26-1.84,2.5-2.24v-0.74H289.53z M317.49,55.17h4.35c0.29,0,0.54,0.1,0.71,0.26c0.17-0.16,0.43-0.26,0.71-0.26
				h0.62c10.45,0,18.96-6.62,18.96-14.76c0-7.27-6.68-13.39-15.88-14.57c-0.4-0.05-0.7-0.29-0.76-0.6
				c-1.65-8.44-11.17-14.8-22.14-14.8c-7.66,0-14.7,2.99-18.83,8c-0.22,0.27-0.64,0.39-1.02,0.31c-1.54-0.33-3.14-0.5-4.75-0.5
				c-8.74,0-16.31,5.07-17.61,11.8c-0.07,0.35-0.46,0.61-0.92,0.61c-0.01,0-0.01,0-0.02,0c-0.11,0-0.21,0-0.32,0
				c-8.68,0-15.74,5.5-15.74,12.26c0,6.76,7.06,12.26,15.74,12.26h9.25c0.29,0,0.54,0.1,0.71,0.26c0.17-0.16,0.43-0.26,0.71-0.26
				h4.35c0.29,0,0.54,0.1,0.71,0.26c0.17-0.16,0.43-0.26,0.71-0.26h4.35c0.29,0,0.54,0.1,0.71,0.26c0.17-0.16,0.43-0.26,0.71-0.26
				h4.35c0.29,0,0.54,0.1,0.71,0.26c0.17-0.16,0.42-0.26,0.71-0.26h4.35c0.29,0,0.54,0.1,0.71,0.26c0.17-0.16,0.42-0.26,0.71-0.26
				h4.35c0.29,0,0.54,0.1,0.71,0.26c0.17-0.16,0.43-0.26,0.71-0.26h4.35c0.29,0,0.54,0.1,0.71,0.26c0.17-0.16,0.43-0.26,0.71-0.26
				h4.35c0.29,0,0.54,0.1,0.71,0.26c0.17-0.16,0.43-0.26,0.71-0.26h4.35c0.29,0,0.54,0.1,0.71,0.26
				C316.95,55.27,317.21,55.17,317.49,55.17z"/>
		</g>
	</g>
	<g>
		<g class="st1">
			<path class="st24" d="M314,73.97c-1.55,0-2.81-1.26-2.81-2.81c0-1.55,1.26-2.81,2.81-2.81c1.55,0,2.81,1.26,2.81,2.81
				C316.81,72.71,315.55,73.97,314,73.97z M314,70.31c-0.47,0-0.85,0.38-0.85,0.85s0.38,0.85,0.85,0.85s0.85-0.38,0.85-0.85
				S314.46,70.31,314,70.31z"/>
			<path class="st24" d="M322.98,79h-2.71c-0.27,0-0.51-0.11-0.69-0.28c-0.18,0.17-0.42,0.28-0.69,0.28h-4.21
				c-0.27,0-0.51-0.11-0.69-0.28c-0.18,0.17-0.42,0.28-0.69,0.28h-4.21c-0.27,0-0.51-0.11-0.69-0.28c-0.18,0.17-0.42,0.28-0.69,0.28
				h-4.21c-0.27,0-0.51-0.11-0.69-0.28c-0.18,0.17-0.42,0.28-0.69,0.28h-4.21c-0.27,0-0.51-0.11-0.69-0.28
				c-0.18,0.17-0.42,0.28-0.69,0.28h-4.21c-0.27,0-0.51-0.11-0.69-0.28c-0.18,0.17-0.42,0.28-0.69,0.28h-4.21
				c-0.27,0-0.51-0.11-0.69-0.28c-0.18,0.17-0.42,0.28-0.69,0.28h-4.21c-0.27,0-0.51-0.11-0.69-0.28c-0.18,0.17-0.42,0.28-0.69,0.28
				h-4.21c-0.27,0-0.51-0.11-0.69-0.28c-0.18,0.17-0.42,0.28-0.69,0.28h-4.21c-0.27,0-0.51-0.11-0.69-0.28
				c-0.18,0.17-0.42,0.28-0.69,0.28h-7.37c-11.85,0-21.49-9.64-21.49-21.49c0-11.85,9.64-21.49,21.49-21.49
				c0.61,0,1.22,0.03,1.84,0.08c1.46-14.2,13.54-25.18,27.93-25.18c11.98,0,22.79,7.81,26.61,19.11c1.76-0.39,3.57-0.59,5.39-0.59
				c13.67,0,24.79,11.12,24.79,24.79S336.65,79,322.98,79z M321.26,77.03h1.72c12.58,0,22.82-10.24,22.82-22.82
				S335.56,31.4,322.98,31.4c-1.97,0-3.92,0.25-5.8,0.75c-0.51,0.14-1.04-0.16-1.19-0.67c-3.3-10.95-13.58-18.6-25.01-18.6
				c-13.71,0-25.15,10.71-26.06,24.37c-0.02,0.27-0.15,0.52-0.36,0.7c-0.21,0.17-0.48,0.25-0.75,0.21c-0.86-0.12-1.73-0.17-2.6-0.17
				c-10.77,0-19.52,8.76-19.52,19.53c0,10.77,8.76,19.52,19.52,19.52h6.39v-9.18l-9.36-9.36c-0.18-0.18-0.29-0.43-0.29-0.7v-5.95
				c-1.5-0.66-2.52-2.16-2.52-3.84c0-2.31,1.88-4.19,4.19-4.19s4.19,1.88,4.19,4.19c0,1.68-1.02,3.18-2.52,3.84v4.98l9.36,9.36
				c0.04,0.04,0.07,0.08,0.1,0.12c0.4-1.9,2.09-3.33,4.1-3.33c1.79,0,3.31,1.12,3.92,2.7V52.81c-1.5-0.66-2.52-2.16-2.52-3.84
				c0-2.31,1.88-4.19,4.19-4.19c2.31,0,4.19,1.88,4.19,4.19c0,1.68-1.02,3.19-2.52,3.84v24.22h2.25V58.19c0-0.26,0.1-0.51,0.29-0.7
				l5.47-5.47v-6.11c-1.5-0.66-2.52-2.16-2.52-3.84c0-2.31,1.88-4.19,4.19-4.19c2.31,0,4.19,1.88,4.19,4.19
				c0,1.68-1.02,3.19-2.52,3.84v5.65c0.68-1.41,2.12-2.38,3.78-2.38c1.76,0,3.26,1.09,3.89,2.62v-5.89
				c-1.5-0.66-2.52-2.16-2.52-3.84c0-2.31,1.88-4.19,4.19-4.19c2.31,0,4.19,1.88,4.19,4.19c0,1.68-1.02,3.19-2.52,3.84v31.12h2.25
				V66.88c0-0.26,0.1-0.51,0.29-0.7l5.06-5.06V50.88c-1.5-0.66-2.52-2.16-2.52-3.84c0-2.31,1.88-4.19,4.19-4.19s4.19,1.88,4.19,4.19
				c0,1.68-1.02,3.18-2.52,3.84V62.1c0,0.26-0.1,0.51-0.29,0.7l-5.06,5.06v1.81c0.6-1.58,2.13-2.7,3.92-2.7
				c1.79,0,3.32,1.12,3.92,2.7V54.06c0-0.26,0.1-0.51,0.29-0.7l5.16-5.16v-2.29c-1.5-0.66-2.52-2.16-2.52-3.84
				c0-2.31,1.88-4.19,4.19-4.19c2.31,0,4.19,1.88,4.19,4.19c0,1.68-1.02,3.19-2.52,3.84v3.27c0,0.26-0.1,0.51-0.29,0.7l-5.16,5.16
				V77.03z M315.67,77.03h2.25v-4.4c-0.4,1.04-1.21,1.91-2.25,2.36V77.03z M310.08,77.03h2.25V75c-1.04-0.46-1.85-1.32-2.25-2.36
				V77.03z M298.9,77.03h2.25v-4.31c-0.41,1.02-1.22,1.86-2.25,2.3V77.03z M293.31,77.03h2.25v-2.04c-1.06-0.47-1.86-1.34-2.25-2.41
				V77.03z M287.72,77.03h2.25V64.81c0-0.26,0.1-0.51,0.29-0.7l5.33-5.33v-1.56c-1.37-0.6-2.34-1.91-2.5-3.42l-5.37,5.37V77.03z
				 M276.54,77.03h2.25v-8.39c-0.4,1.04-1.21,1.91-2.25,2.36V77.03z M270.95,77.03h2.25V71c-1.04-0.46-1.85-1.32-2.25-2.36V77.03z
				 M314,68.93c-1.23,0-2.23,1-2.23,2.22c0,1.04,0.73,1.95,1.75,2.17c0.19,0.04,0.35,0.13,0.48,0.26c0.13-0.13,0.29-0.22,0.48-0.26
				c1.01-0.22,1.75-1.14,1.75-2.17C316.22,69.93,315.22,68.93,314,68.93z M297.26,68.93c-1.23,0-2.23,1-2.23,2.22
				c0,1.03,0.73,1.94,1.73,2.17c0.19,0.04,0.35,0.14,0.48,0.26c0.13-0.13,0.29-0.22,0.48-0.25c1.03-0.22,1.77-1.13,1.77-2.18
				C299.48,69.93,298.48,68.93,297.26,68.93z M293.31,65.79v3.96c0.58-1.62,2.13-2.78,3.95-2.78c1.76,0,3.26,1.09,3.89,2.62V54.93
				c-0.41,1.01-1.2,1.84-2.21,2.29v2.54c0,0.26-0.1,0.51-0.29,0.7L293.31,65.79z M274.87,64.94c-1.23,0-2.23,1-2.23,2.23
				c0,1.04,0.74,1.95,1.75,2.17c0.19,0.04,0.35,0.13,0.48,0.26c0.13-0.13,0.29-0.22,0.48-0.26c1.01-0.22,1.75-1.14,1.75-2.17
				C277.09,65.93,276.09,64.94,274.87,64.94z M297.26,51.15c-1.23,0-2.23,1-2.23,2.22c0,1.04,0.73,1.95,1.75,2.17
				c0.19,0.04,0.35,0.13,0.48,0.26c0.13-0.13,0.29-0.22,0.48-0.26c1.01-0.22,1.75-1.14,1.75-2.17
				C299.48,52.15,298.48,51.15,297.26,51.15z M280.46,46.74c-1.23,0-2.23,1-2.23,2.22c0,1.04,0.74,1.95,1.75,2.17
				c0.19,0.04,0.35,0.13,0.48,0.26c0.13-0.13,0.29-0.22,0.48-0.26c1.01-0.22,1.75-1.14,1.75-2.17
				C282.68,47.74,281.68,46.74,280.46,46.74z M259.63,45.78c-1.23,0-2.23,1-2.23,2.23c0,1.04,0.73,1.95,1.75,2.17
				c0.19,0.04,0.35,0.13,0.48,0.26c0.13-0.13,0.29-0.22,0.48-0.26c1.01-0.22,1.75-1.14,1.75-2.17
				C261.85,46.77,260.85,45.78,259.63,45.78z M313.75,44.81c-1.23,0-2.23,1-2.23,2.23c0,1.04,0.74,1.95,1.75,2.17
				c0.19,0.04,0.35,0.13,0.48,0.26c0.13-0.13,0.29-0.22,0.48-0.26c1.01-0.22,1.75-1.14,1.75-2.17
				C315.98,45.81,314.98,44.81,313.75,44.81z M325.03,39.85c-1.23,0-2.22,1-2.22,2.22c0,1.04,0.73,1.95,1.75,2.17
				c0.19,0.04,0.35,0.13,0.48,0.26c0.13-0.13,0.29-0.22,0.48-0.26c1.01-0.22,1.75-1.14,1.75-2.17
				C327.26,40.85,326.26,39.85,325.03,39.85z M291.8,39.85c-1.23,0-2.22,1-2.22,2.22c0,1.04,0.73,1.95,1.75,2.17
				c0.19,0.04,0.35,0.13,0.48,0.26c0.13-0.13,0.29-0.22,0.48-0.26c1.01-0.22,1.75-1.14,1.75-2.17
				C294.03,40.85,293.03,39.85,291.8,39.85z M302.82,39.85c-1.23,0-2.22,1-2.22,2.22c0,1.04,0.73,1.95,1.75,2.17
				c0.19,0.04,0.35,0.13,0.48,0.26c0.13-0.13,0.29-0.22,0.48-0.26c1.01-0.22,1.75-1.14,1.75-2.17
				C305.04,40.85,304.04,39.85,302.82,39.85z"/>
			<path class="st24" d="M274.87,69.97c-1.55,0-2.81-1.26-2.81-2.81c0-1.55,1.26-2.81,2.81-2.81c1.55,0,2.81,1.26,2.81,2.81
				C277.68,68.71,276.42,69.97,274.87,69.97z M274.87,66.31c-0.47,0-0.85,0.38-0.85,0.85s0.38,0.85,0.85,0.85s0.85-0.38,0.85-0.85
				S275.33,66.31,274.87,66.31z"/>
			<path class="st24" d="M325.03,44.89c-1.55,0-2.81-1.26-2.81-2.81c0-1.55,1.26-2.81,2.81-2.81c1.55,0,2.81,1.26,2.81,2.81
				C327.85,43.63,326.58,44.89,325.03,44.89z M325.03,41.23c-0.47,0-0.85,0.38-0.85,0.85c0,0.47,0.38,0.85,0.85,0.85
				c0.47,0,0.85-0.38,0.85-0.85C325.88,41.61,325.5,41.23,325.03,41.23z"/>
			<path class="st24" d="M259.63,50.81c-1.55,0-2.81-1.26-2.81-2.81c0-1.55,1.26-2.81,2.81-2.81c1.55,0,2.81,1.26,2.81,2.81
				C262.44,49.55,261.18,50.81,259.63,50.81z M259.63,47.15c-0.47,0-0.85,0.38-0.85,0.85c0,0.47,0.38,0.85,0.85,0.85
				s0.85-0.38,0.85-0.85C260.47,47.53,260.09,47.15,259.63,47.15z"/>
			<path class="st24" d="M280.46,51.78c-1.55,0-2.81-1.26-2.81-2.81c0-1.55,1.26-2.81,2.81-2.81c1.55,0,2.81,1.26,2.81,2.81
				C283.27,50.52,282.01,51.78,280.46,51.78z M280.46,48.12c-0.47,0-0.85,0.38-0.85,0.85c0,0.47,0.38,0.85,0.85,0.85
				s0.85-0.38,0.85-0.85C281.3,48.5,280.92,48.12,280.46,48.12z"/>
			<path class="st24" d="M297.26,73.97c-1.55,0-2.81-1.26-2.81-2.81c0-1.55,1.26-2.81,2.81-2.81c1.55,0,2.81,1.26,2.81,2.81
				C300.07,72.71,298.81,73.97,297.26,73.97z M297.26,70.31c-0.47,0-0.85,0.38-0.85,0.85s0.38,0.85,0.85,0.85
				c0.47,0,0.85-0.38,0.85-0.85S297.72,70.31,297.26,70.31z"/>
			<path class="st24" d="M297.26,56.19c-1.55,0-2.81-1.26-2.81-2.81s1.26-2.81,2.81-2.81c1.55,0,2.81,1.26,2.81,2.81
				S298.81,56.19,297.26,56.19z M297.26,52.53c-0.47,0-0.85,0.38-0.85,0.85s0.38,0.85,0.85,0.85c0.47,0,0.85-0.38,0.85-0.85
				S297.72,52.53,297.26,52.53z"/>
			<path class="st24" d="M302.82,44.89c-1.55,0-2.81-1.26-2.81-2.81c0-1.55,1.26-2.81,2.81-2.81c1.55,0,2.81,1.26,2.81,2.81
				C305.63,43.63,304.37,44.89,302.82,44.89z M302.82,41.23c-0.47,0-0.85,0.38-0.85,0.85c0,0.47,0.38,0.85,0.85,0.85
				c0.47,0,0.85-0.38,0.85-0.85C303.66,41.61,303.28,41.23,302.82,41.23z"/>
			<path class="st24" d="M291.8,44.89c-1.55,0-2.81-1.26-2.81-2.81c0-1.55,1.26-2.81,2.81-2.81c1.55,0,2.81,1.26,2.81,2.81
				C294.62,43.63,293.36,44.89,291.8,44.89z M291.8,41.23c-0.47,0-0.85,0.38-0.85,0.85c0,0.47,0.38,0.85,0.85,0.85
				c0.47,0,0.85-0.38,0.85-0.85C292.65,41.61,292.27,41.23,291.8,41.23z"/>
			<path class="st24" d="M313.75,49.85c-1.55,0-2.81-1.26-2.81-2.81c0-1.55,1.26-2.81,2.81-2.81c1.55,0,2.81,1.26,2.81,2.81
				C316.57,48.59,315.3,49.85,313.75,49.85z M313.75,46.19c-0.47,0-0.85,0.38-0.85,0.85c0,0.47,0.38,0.85,0.85,0.85
				c0.47,0,0.85-0.38,0.85-0.85C314.6,46.57,314.22,46.19,313.75,46.19z"/>
		</g>
	</g>
	<g class="st1">
		<g>
			<path class="st10" d="M79.34,106.95c-9.59-5.29-15.21-16.26-13.19-27.65c2.53-14.32,16.2-23.88,30.52-21.34
				c12.24,2.17,21,12.47,21.7,24.36"/>
			<line class="st10" x1="163.08" y1="35.79" x2="136.64" y2="54.28"/>
			<line class="st10" x1="108.27" y1="-0.33" x2="102.64" y2="31.45"/>
			<line class="st10" x1="43.97" y1="12.89" x2="62.46" y2="39.33"/>
			<line class="st10" x1="7.85" y1="67.7" x2="39.63" y2="73.32"/>
			<line class="st10" x1="21.07" y1="131.99" x2="47.51" y2="113.51"/>
		</g>
		<g>
			<line class="st10" x1="126.28" y1="83.89" x2="92.33" y2="151"/>
			<line class="st10" x1="160.48" y1="83.89" x2="126.53" y2="151"/>
			<line class="st10" x1="194.69" y1="83.89" x2="160.74" y2="151"/>
			<polygon class="st10" points="194.94,151 228.9,83.89 92.07,83.89 58.12,151 			"/>
			<line class="st10" x1="251" y1="128" x2="228.9" y2="83.89"/>
			<line class="st10" x1="75.1" y1="117.45" x2="211.92" y2="117.45"/>
		</g>
	</g>
	<g class="st1">
		<path d="M219.76,71.17c-1.7,0.33-2.81,1.98-2.48,3.68c0.33,1.7,1.98,2.81,3.68,2.48c7.27-1.43,14.35,3.33,15.78,10.6
			c0.17,0.85,0.66,1.55,1.33,2c0.67,0.45,1.5,0.64,2.35,0.47c1.7-0.33,2.81-1.98,2.48-3.68C240.81,76.06,230.42,69.08,219.76,71.17z
			"/>
		<path d="M242.19,62.79c-7.41-4.98-16.31-6.77-25.06-5.06c-1.7,0.33-2.81,1.98-2.48,3.68c0.33,1.7,1.98,2.81,3.68,2.48
			c14.68-2.88,28.97,6.72,31.85,21.4c0.17,0.85,0.66,1.55,1.33,2c0.67,0.45,1.5,0.64,2.35,0.47c1.7-0.33,2.81-1.98,2.48-3.68
			C254.62,75.33,249.59,67.76,242.19,62.79z"/>
		<path d="M214.57,44.72c-1.7,0.33-2.81,1.98-2.48,3.68c0.33,1.7,1.98,2.81,3.68,2.48c10.59-2.08,21.35,0.1,30.3,6.12
			c8.96,6.02,15.03,15.17,17.11,25.75c0.17,0.85,0.66,1.55,1.33,2c0.67,0.45,1.5,0.64,2.35,0.47c1.7-0.33,2.81-1.98,2.48-3.68
			c-2.4-12.23-9.42-22.8-19.76-29.75C239.24,44.83,226.8,42.32,214.57,44.72z"/>
	</g>
	<g class="st1">
		<g>
			<path class="st24" d="M310.8,81c-2.11,0-3.82-1.33-3.82-2.97c0-1.2,0.95-2.28,2.34-2.74v-4.45c-0.53,1.15-1.94,1.98-3.6,1.98
				c-1.78,0-3.27-0.95-3.7-2.23v4.71c1.39,0.46,2.34,1.54,2.34,2.74c0,1.64-1.71,2.97-3.82,2.97c-2.11,0-3.82-1.33-3.82-2.97
				c0-1.2,0.95-2.28,2.34-2.74V53.53h-2.25v6.52c0,0.17-0.09,0.34-0.24,0.46l-4.73,3.68v7.49c1.39,0.46,2.34,1.54,2.34,2.74
				c0,1.64-1.71,2.97-3.82,2.97c-2.11,0-3.82-1.33-3.82-2.97c0-1.2,0.95-2.29,2.34-2.74v-8.17c0-0.17,0.09-0.34,0.24-0.46l4.73-3.68
				V57.6c-0.38,1.33-1.91,2.33-3.73,2.33c-1.82,0-3.35-1-3.73-2.32v11.74c0,0.17-0.09,0.34-0.24,0.46l-4.82,3.76v1.72
				c1.39,0.46,2.34,1.54,2.34,2.74c0,1.64-1.71,2.97-3.82,2.97c-2.11,0-3.82-1.33-3.82-2.97c0-1.2,0.95-2.28,2.34-2.74v-2.41
				c0-0.17,0.09-0.34,0.24-0.46l4.82-3.76V53.53h-7.49c-8.73,0-15.84-5.53-15.84-12.33c0-6.7,6.89-12.17,15.44-12.33
				c1.59-6.41,8.93-11.17,17.38-11.17c1.4,0,2.78,0.13,4.13,0.38c4.06-4.64,10.76-7.4,18.02-7.4c10.49,0,19.62,5.97,21.48,13.97
				c8.78,1.34,15.1,7.29,15.1,14.31c0,7.97-8.25,14.47-18.46,14.58v5.84l8.73,6.8c0.16,0.12,0.24,0.29,0.24,0.46v4.36
				c1.39,0.46,2.34,1.54,2.34,2.74c0,1.64-1.71,2.97-3.82,2.97c-2.11,0-3.82-1.33-3.82-2.97c0-1.2,0.95-2.28,2.34-2.74v-3.67
				l-8.73-6.8c-0.09-0.07-0.15-0.15-0.19-0.23c-0.27,1.44-1.86,2.54-3.78,2.54c-1.82,0-3.35-1-3.73-2.32v9.79
				c1.39,0.46,2.34,1.54,2.34,2.74c0,1.64-1.71,2.97-3.82,2.97c-2.11,0-3.82-1.33-3.82-2.97c0-1.2,0.95-2.29,2.34-2.74V53.53h-2.25
				v12.82c0,0.17-0.09,0.34-0.24,0.46l-5.11,3.98v4.49c1.39,0.46,2.35,1.54,2.35,2.74C314.62,79.67,312.91,81,310.8,81z
				 M310.8,77.35c-0.48,0-0.87,0.3-0.87,0.68c0,0.37,0.39,0.68,0.87,0.68c0.48,0,0.87-0.3,0.87-0.68
				C311.67,77.65,311.28,77.35,310.8,77.35z M300.56,77.35c-0.48,0-0.87,0.3-0.87,0.68c0,0.37,0.39,0.68,0.87,0.68
				c0.48,0,0.87-0.3,0.87-0.68C301.43,77.65,301.04,77.35,300.56,77.35z M279.88,77.35c-0.48,0-0.87,0.3-0.87,0.68
				c0,0.37,0.39,0.68,0.87,0.68c0.48,0,0.87-0.3,0.87-0.68C280.75,77.65,280.36,77.35,279.88,77.35z M290.38,73.75
				c-0.48,0-0.87,0.3-0.87,0.68c0,0.37,0.39,0.68,0.87,0.68c0.48,0,0.87-0.3,0.87-0.68C291.25,74.06,290.86,73.75,290.38,73.75z
				 M340.75,73.05c-0.48,0-0.87,0.3-0.87,0.68c0,0.37,0.39,0.68,0.87,0.68c0.48,0,0.87-0.3,0.87-0.68
				C341.62,73.36,341.23,73.05,340.75,73.05z M321.36,72.35c-0.48,0-0.87,0.3-0.87,0.68c0,0.37,0.39,0.68,0.87,0.68
				c0.48,0,0.87-0.3,0.87-0.68C322.23,72.66,321.84,72.35,321.36,72.35z M305.73,69.16c-0.48,0-0.87,0.3-0.87,0.68
				s0.39,0.68,0.87,0.68c0.48,0,0.87-0.3,0.87-0.68S306.21,69.16,305.73,69.16z M307.2,67.09c1.33,0.44,2.26,1.44,2.34,2.58
				c0.01-0.01,0.02-0.02,0.03-0.03l5.11-3.98V53.53h-2.25v8.02c0,0.17-0.09,0.34-0.24,0.46l-4.99,3.88V67.09z M302.03,57.69V69.1
				c0.3-0.89,1.12-1.65,2.22-2.01v-1.88c0-0.17,0.09-0.34,0.24-0.46l4.99-3.88v-3.38c-0.33,1.38-1.89,2.43-3.76,2.43
				C303.95,59.93,302.45,58.98,302.03,57.69z M326.57,59.17c-0.48,0-0.87,0.3-0.87,0.68c0,0.37,0.39,0.68,0.87,0.68
				c0.48,0,0.87-0.3,0.87-0.68C327.44,59.48,327.05,59.17,326.57,59.17z M328.04,57.11c1.14,0.37,1.98,1.17,2.25,2.1v-5.68h-2.25
				V57.11z M322.84,53.53v5.68c0.27-0.93,1.11-1.73,2.25-2.1v-3.58H322.84z M305.73,56.27c-0.48,0-0.87,0.3-0.87,0.68
				c0,0.37,0.39,0.68,0.87,0.68c0.48,0,0.87-0.3,0.87-0.68C306.6,56.58,306.21,56.27,305.73,56.27z M290.15,56.27
				c-0.48,0-0.87,0.3-0.87,0.68c0,0.37,0.39,0.68,0.87,0.68c0.48,0,0.87-0.3,0.87-0.68C291.02,56.58,290.63,56.27,290.15,56.27z
				 M307.23,54.22c1.18,0.39,2.02,1.21,2.25,2.19v-2.88h-2.25V54.22z M291.63,54.21c1.14,0.37,1.98,1.17,2.25,2.1v-2.78h-2.25V54.21
				z M286.42,53.53v2.78c0.27-0.93,1.12-1.73,2.25-2.1v-0.68H286.42z M302.03,53.53v2.69c0.3-0.9,1.14-1.66,2.25-2.02v-0.67H302.03z
				 M327.21,52.23h3.92c0.26,0,0.49,0.09,0.64,0.23c0.15-0.14,0.38-0.23,0.64-0.23h0.56c9.41,0,17.07-5.96,17.07-13.29
				c0-6.54-6.01-12.06-14.29-13.11c-0.36-0.05-0.63-0.26-0.69-0.54c-1.49-7.6-10.06-13.32-19.93-13.32c-6.9,0-13.23,2.69-16.95,7.2
				c-0.2,0.24-0.57,0.35-0.92,0.27c-1.39-0.3-2.82-0.45-4.28-0.45c-7.87,0-14.69,4.57-15.85,10.62c-0.06,0.32-0.41,0.55-0.82,0.55
				c-0.01,0-0.01,0-0.02,0c-0.09,0-0.19,0-0.29,0c-7.82,0-14.17,4.95-14.17,11.04c0,6.08,6.36,11.04,14.17,11.04h8.32
				c0.26,0,0.49,0.09,0.64,0.23c0.15-0.14,0.38-0.23,0.64-0.23h3.92c0.26,0,0.49,0.09,0.64,0.23c0.15-0.14,0.38-0.23,0.64-0.23h3.92
				c0.26,0,0.49,0.09,0.64,0.23c0.15-0.14,0.38-0.23,0.64-0.23h3.92c0.26,0,0.49,0.09,0.64,0.23c0.15-0.14,0.38-0.23,0.64-0.23h3.92
				c0.26,0,0.49,0.09,0.64,0.23c0.15-0.14,0.38-0.23,0.64-0.23h3.92c0.26,0,0.49,0.09,0.64,0.23c0.15-0.14,0.38-0.23,0.64-0.23h3.92
				c0.26,0,0.49,0.09,0.64,0.23c0.15-0.14,0.38-0.23,0.64-0.23h3.92c0.26,0,0.49,0.09,0.64,0.23c0.15-0.14,0.38-0.23,0.64-0.23h3.92
				c0.26,0,0.49,0.09,0.64,0.23C326.72,52.32,326.95,52.23,327.21,52.23z"/>
		</g>
	</g>
	<path class="st1" d="M317.69,183.49c0.01,0,1.29,0.3,2.27,0.3c0.97,0,2.37-0.28,2.42-0.3c4.61-1.13,7.76-5.38,7.46-10.18
		c-0.31-5-4.41-9-9.41-9.2c-5.6-0.22-10.23,4.27-10.23,9.83C310.21,178.48,313.29,182.41,317.69,183.49z M319.48,167.84
		c3.81-0.34,7,2.84,6.66,6.66c-0.26,2.92-2.62,5.28-5.54,5.54c-3.81,0.34-7-2.84-6.66-6.66
		C314.21,170.46,316.56,168.1,319.48,167.84z M341.48,137H218.82c-1.02,0-1.85,0.83-1.85,1.85v93.27c0,1.02,0.83,1.85,1.85,1.85
		h47.76v15.7l-1.87,0c-6.44,0.01-11.68,5.25-11.68,11.69v0.15c0,1.02,0.83,1.85,1.85,1.85h50.47c0.49,0,0.98-0.17,1.33-0.51
		c0.37-0.35,0.58-0.83,0.58-1.35l0-0.36c0-6.33-5.16-11.48-11.49-11.48l-1.56,0v-15.7h47.26c1.02,0,1.85-0.83,1.85-1.85v-93.27
		C343.34,137.83,342.51,137,341.48,137z M297.28,253.39c3.47,0,6.28,2.81,6.28,6.28l0,0h-46.82l0,0c0-3.47,2.81-6.28,6.28-6.28
		H297.28z M270.29,249.68v-15.7h20.22v15.7H270.29z M339.63,230.27H220.67v-14.76h118.96V230.27z M234.14,211.8v-30.87h12.25v30.87
		H234.14z M260.73,211.8v-15.49h12.25v15.49H260.73z M287.32,211.8v-25.46h12.25v25.46H287.32z M313.92,211.8v-9.75h12.25v9.75
		H313.92z M339.63,211.8h-9.75v-11.61c0-1.02-0.83-1.85-1.85-1.85h-15.96c-1.02,0-1.85,0.83-1.85,1.85v11.61h-6.93v-27.32
		c0-1.02-0.83-1.85-1.85-1.85h-15.96c-1.02,0-1.85,0.83-1.85,1.85v27.32h-6.93v-17.34c0-1.02-0.83-1.85-1.85-1.85h-15.96
		c-1.02,0-1.85,0.83-1.85,1.85v17.34h-6.93v-32.73c0-1.02-0.83-1.85-1.85-1.85h-15.96c-1.02,0-1.85,0.83-1.85,1.85v32.73h-9.75
		v-71.09h118.96V211.8z M283.85,224.14c0,0.91-0.37,1.8-1.01,2.44c-0.64,0.64-1.53,1.01-2.44,1.01c-0.91,0-1.8-0.37-2.44-1.01
		c-0.64-0.64-1.01-1.53-1.01-2.44c0-0.91,0.37-1.8,1.01-2.44c0.64-0.64,1.53-1.01,2.44-1.01c0.91,0,1.8,0.37,2.44,1.01
		C283.48,222.35,283.85,223.24,283.85,224.14z M237.91,168.48c0.01,0,1.29,0.3,2.27,0.3c0.97,0,2.37-0.28,2.42-0.3
		c4.61-1.13,7.76-5.38,7.46-10.18c-0.31-5-4.41-9-9.41-9.2c-5.6-0.22-10.23,4.27-10.23,9.83
		C230.43,163.47,233.51,167.4,237.91,168.48z M239.7,152.83c3.81-0.34,7,2.84,6.66,6.66c-0.26,2.92-2.62,5.28-5.54,5.54
		c-3.81,0.34-7-2.84-6.66-6.66C234.42,155.45,236.78,153.1,239.7,152.83z M291.1,173.01c0.05,0.01,1.3,0.3,2.28,0.3
		c0.97,0,2.37-0.28,2.42-0.3c4.61-1.13,7.76-5.38,7.46-10.17c-0.31-5-4.41-9-9.41-9.2c-5.6-0.22-10.23,4.27-10.23,9.83
		C283.61,168,286.69,171.93,291.1,173.01z M292.89,157.36c3.81-0.34,7,2.84,6.66,6.66c-0.26,2.92-2.62,5.28-5.54,5.54
		c-3.81,0.34-7-2.84-6.66-6.66C287.61,159.98,289.96,157.63,292.89,157.36z M264.51,183.48c0.05,0.01,1.3,0.3,2.27,0.3
		c0.97,0,2.37-0.28,2.42-0.3c4.61-1.13,7.76-5.38,7.46-10.18c-0.31-5-4.41-9-9.41-9.2c-5.6-0.22-10.23,4.27-10.23,9.83
		C257.02,178.48,260.1,182.4,264.51,183.48z M266.3,167.84c3.81-0.34,7,2.84,6.66,6.66c-0.26,2.92-2.62,5.28-5.54,5.54
		c-3.81,0.34-7-2.84-6.66-6.66C261.02,170.45,263.37,168.1,266.3,167.84z"/>
	<g class="st1">
		<g>
			<g>
				<g>
					<polyline class="st10" points="56.41,197.15 56.41,180 196.97,180 196.97,238.92 56.41,238.92 56.41,221.77 					"/>
					<polyline class="st10" points="56.41,221.77 40,221.77 40,197.15 56.41,197.15 					"/>
				</g>
			</g>
			
				<rect x="164.89" y="188.59" transform="matrix(-1 -4.481982e-11 4.481982e-11 -1 345.9303 418.9191)" class="st10" width="16.15" height="41.73"/>
			
				<rect x="135.51" y="188.59" transform="matrix(-1 -4.481982e-11 4.481982e-11 -1 287.172 418.9191)" class="st10" width="16.15" height="41.73"/>
			
				<rect x="106.13" y="188.59" transform="matrix(-1 -4.470703e-11 4.470703e-11 -1 228.4138 418.9191)" class="st10" width="16.15" height="41.73"/>
		</g>
		<g>
			<g>
				<polyline class="st25" points="55.76,202.93 63.62,202.93 63.62,216.36 				"/>
				<polyline class="st25" points="77.67,202.93 69.8,202.93 69.8,209.65 77.67,209.65 77.67,216.36 69.8,216.36 				"/>
				<line class="st25" x1="94.46" y1="202.56" x2="84.92" y2="216.36"/>
			</g>
			<circle class="st25" cx="94.46" cy="216.36" r="0.26"/>
			<circle class="st25" cx="84.92" cy="202.56" r="0.26"/>
		</g>
	</g>
</g>
<g id="Layer_3" class="st0">
	<g class="st1">
		<g>
			<path class="st26" d="M78.67,239.01l-3.08-9.49l-8.06,5.86l-8.07-5.86l-3.07,9.49h-9.99l3.08,9.47l-8.06,5.85l8.06,5.86
				l-3.08,9.47h9.99l3.07,9.5l8.07-5.88l8.06,5.88l3.08-9.5h9.97l-3.08-9.47l8.06-5.86l-8.06-5.85l3.08-9.47H78.67z M109.57,307.01
				h24.92c2.07-0.05,3.83-0.81,5.31-2.28c1.47-1.47,2.23-3.24,2.28-5.31v-15.78 M48.63,283.65v15.78c0.05,2.07,0.81,3.83,2.28,5.31
				c1.47,1.47,3.24,2.23,5.31,2.28h25.86"/>
			<path class="st26" d="M100.07,249.3l4.19-3.18l18.89-14.28l11.75,8.88v-8.88 M104.27,246.12l-0.01,29.93
				c12.61,0,25.21,0.01,37.82,0.01l-0.01-0.01h0.01v-29.9v-0.01l-7.17-5.42 M122.91,299.62v-8.92c0-1.22-0.44-2.27-1.31-3.14
				c-0.87-0.87-1.92-1.3-3.14-1.3H72.24c-1.22,0-2.27,0.43-3.14,1.3c-0.87,0.87-1.31,1.92-1.31,3.14v8.92 M142.07,246.15l4.19,3.18
				 M67.8,314.46v8.94c0,1.22,0.43,2.27,1.31,3.14c0.87,0.87,1.92,1.31,3.14,1.31h46.22c1.22,0,2.27-0.43,3.14-1.31
				c0.87-0.87,1.31-1.92,1.31-3.14c0-2.98,0-5.96,0-8.94"/>
			<path class="st26" d="M112.02,260.07l1.08-2.97l3.21-8.93l3.24,8.93l1.06,2.97 M113.1,257.1h6.44 M78.32,259.3
				c-0.1,0.08-0.2,0.15-0.31,0.21c-0.7,0.37-1.64,0.54-2.81,0.53H75.2c-1.15,0.01-2.07-0.16-2.76-0.53h-0.01
				c-0.73-0.39-1.25-1.05-1.57-1.97c-0.3-0.84-0.45-1.98-0.44-3.43c0-1.46,0.15-2.62,0.44-3.46c0.32-0.92,0.84-1.57,1.57-1.96h0.01
				c0.69-0.37,1.61-0.55,2.76-0.54h0.01c1.17-0.01,2.1,0.17,2.81,0.54c0.11,0.06,0.21,0.12,0.31,0.2 M133.67,259.3
				c-0.1,0.08-0.21,0.15-0.32,0.21c-0.69,0.37-1.62,0.54-2.78,0.53h-0.01c-1.16,0.01-2.08-0.16-2.78-0.53h-0.01
				c-0.73-0.39-1.25-1.05-1.57-1.97c-0.3-0.84-0.46-1.98-0.46-3.43c0-1.46,0.16-2.62,0.46-3.46c0.32-0.92,0.84-1.57,1.57-1.96h0.01
				c0.7-0.37,1.62-0.55,2.78-0.54h0.01c1.16-0.01,2.08,0.17,2.78,0.54c0.11,0.06,0.22,0.12,0.32,0.2 M65.17,252.73v3.24
				c0,1.26-0.45,2.34-1.35,3.22c-0.87,0.87-1.91,1.32-3.12,1.35h-4.57l-0.01-12.37h4.58c1.22,0.03,2.26,0.48,3.12,1.35
				C64.72,250.4,65.17,251.47,65.17,252.73z"/>
			<g>
				<path class="st26" d="M101.89,304.55l-19.82-11.43v27.78l19.82-11.44c-0.51-0.71-0.76-1.52-0.76-2.44
					C101.13,306.09,101.38,305.27,101.89,304.55c0.14-0.19,0.29-0.37,0.46-0.54c0.83-0.81,1.83-1.22,3-1.22
					c1.17,0,2.16,0.41,2.97,1.22c0.83,0.83,1.25,1.83,1.25,3c0,1.17-0.42,2.16-1.25,2.97c-0.81,0.83-1.81,1.25-2.97,1.25
					c-1.17,0-2.17-0.42-3-1.25c-0.17-0.17-0.32-0.35-0.46-0.53"/>
			</g>
		</g>
	</g>
	<path class="st27" d="M256.67,24.01l-3.08-9.49l-8.06,5.86l-8.07-5.86l-3.07,9.49h-9.99l3.08,9.47l-8.06,5.85l8.06,5.86l-3.08,9.47
		h9.99l3.07,9.5l8.07-5.88l8.06,5.88l3.08-9.5h9.97l-3.08-9.47l8.06-5.86l-8.06-5.85l3.08-9.47H256.67z M287.57,92.01h24.92
		c2.07-0.05,3.83-0.81,5.31-2.28c1.47-1.47,2.23-3.24,2.28-5.31V68.65 M226.63,68.65v15.78c0.05,2.07,0.81,3.83,2.28,5.31
		c1.47,1.47,3.24,2.23,5.31,2.28h25.86"/>
	<path class="st27" d="M278.07,34.3l4.19-3.18l18.89-14.28l11.75,8.88v-8.88 M282.27,31.12l-0.01,29.93
		c12.61,0,25.21,0.01,37.82,0.01l-0.01-0.01h0.01v-29.9v-0.01l-7.17-5.42 M300.91,84.62v-8.92c0-1.22-0.43-2.27-1.31-3.14
		c-0.87-0.87-1.92-1.3-3.14-1.3h-46.22c-1.22,0-2.27,0.43-3.14,1.3c-0.87,0.87-1.31,1.92-1.31,3.14v8.92 M320.07,31.15l4.19,3.18
		 M245.8,99.46v8.94c0,1.22,0.43,2.27,1.31,3.14c0.87,0.87,1.92,1.31,3.14,1.31h46.22c1.22,0,2.27-0.43,3.14-1.31
		c0.87-0.87,1.31-1.92,1.31-3.14c0-2.98,0-5.96,0-8.94"/>
	<path class="st27" d="M290.02,45.07l1.08-2.97l3.21-8.93l3.24,8.93l1.06,2.97 M291.1,42.1h6.44 M256.32,44.3
		c-0.1,0.08-0.2,0.15-0.31,0.21c-0.7,0.37-1.64,0.54-2.81,0.53h-0.01c-1.15,0.01-2.07-0.16-2.76-0.53h-0.01
		c-0.73-0.39-1.25-1.05-1.57-1.97c-0.3-0.84-0.45-1.98-0.44-3.43c0-1.46,0.15-2.62,0.44-3.46c0.32-0.92,0.84-1.57,1.57-1.96h0.01
		c0.69-0.37,1.61-0.55,2.76-0.54h0.01c1.17-0.01,2.1,0.17,2.81,0.54c0.11,0.06,0.21,0.12,0.31,0.2 M311.67,44.3
		c-0.1,0.08-0.21,0.15-0.32,0.21c-0.69,0.37-1.62,0.54-2.78,0.53h-0.01c-1.16,0.01-2.08-0.16-2.78-0.53h-0.01
		c-0.73-0.39-1.25-1.05-1.57-1.97c-0.3-0.84-0.46-1.98-0.46-3.43c0-1.46,0.16-2.62,0.46-3.46c0.32-0.92,0.84-1.57,1.57-1.96h0.01
		c0.7-0.37,1.62-0.55,2.78-0.54h0.01c1.16-0.01,2.08,0.17,2.78,0.54c0.11,0.06,0.22,0.12,0.32,0.2 M243.17,37.73v3.24
		c0,1.26-0.45,2.33-1.35,3.22c-0.87,0.87-1.91,1.32-3.12,1.35h-4.57l-0.01-12.38h4.58c1.22,0.03,2.26,0.48,3.12,1.35
		C242.72,35.4,243.17,36.47,243.17,37.73z"/>
	<g class="st1">
		<path class="st26" d="M279.89,89.55l-19.82-11.43v27.78l19.82-11.44c-0.51-0.71-0.76-1.52-0.76-2.44
			C279.13,91.09,279.38,90.27,279.89,89.55c0.14-0.19,0.29-0.37,0.46-0.54c0.83-0.81,1.83-1.22,3-1.22c1.17,0,2.16,0.41,2.97,1.22
			c0.83,0.83,1.25,1.83,1.25,3s-0.42,2.16-1.25,2.97c-0.81,0.83-1.81,1.25-2.97,1.25c-1.17,0-2.17-0.42-3-1.25
			c-0.17-0.17-0.32-0.35-0.46-0.53"/>
	</g>
	<g class="st1">
		<g>
			<rect x="40.94" y="37.96" class="st28" width="124.8" height="124.81"/>
		</g>
		<g>
			<polyline class="st26" points="117.95,141.03 118.63,148.71 134.43,151.85 135.18,156.12 71.53,156.12 72.28,151.85 
				88.12,148.71 88.78,141.03 			"/>
			<path class="st26" d="M116.82,55.48h-8.72 M108.1,63.68h8.72 M127.21,82.22c-4.12,0-7.64,1.45-10.54,4.35
				c-2.9,2.9-4.35,6.4-4.35,10.5c0,4.09,1.45,7.59,4.35,10.49c1.99,1.99,4.27,3.29,6.83,3.92l9.5-14.4l-11.57-0.03l9.5-14.39
				C129.75,82.36,128.51,82.22,127.21,82.22z M123.5,111.47c1.17,0.29,2.41,0.43,3.71,0.43c4.12,0,7.63-1.45,10.53-4.35
				c2.9-2.9,4.35-6.4,4.35-10.49c0-4.1-1.45-7.6-4.35-10.5c-1.98-1.98-4.25-3.29-6.81-3.92"/>
			<path class="st26" d="M92.49,59.55H75.56c-6.26,0-11.61,2.22-16.04,6.65c-2.11,2.1-3.71,4.41-4.82,6.93
				c-1.22,2.79-1.83,5.83-1.83,9.12c0,6.26,2.22,11.61,6.65,16.04c3.18,3.18,7.06,5.29,11.67,6.32 M118.42,69.9l-3.36,10.4h-10.9
				l3.36,10.38l-8.85,6.42l8.85,6.39l-3.36,10.39v0.03l10.9-0.01l3.36,10.36l8.85-6.4l8.81,6.4l3.39-10.36l10.93,0.01v-0.03
				L147,103.48l8.78-6.39L147,90.71l3.39-10.4h-10.93l-3.37-10.39l-8.83,6.43L118.42,69.9z"/>
			<g>
				<path class="st26" d="M63.37,134.01h26.04l1.79-20.1h-0.01H68.71L63.37,134.01z M117.06,131.04l0.26,2.97h26.04l-1.78-6.72
					 M92.88,94.78l1.28-14.47H77.64L73.8,94.78H92.88z M94.16,80.3h3 M89.41,134.01h27.92 M91.18,113.91l1.69-19.14 M97.05,113.91
					H91.2 M73.8,94.78l-5.08,19.14"/>
			</g>
			<g>
				<path class="st26" d="M101.27,50.79c-2.43,0-4.5,0.85-6.22,2.56c-1.7,1.72-2.55,3.79-2.56,6.21v0.04c0,2.43,0.85,4.49,2.56,6.19
					c1.72,1.72,3.8,2.58,6.22,2.58h6.83V50.79H101.27z"/>
			</g>
		</g>
	</g>
</g>
</svg>
